<svg xmlns="http://www.w3.org/2000/svg" xmlns:xlink="http://www.w3.org/1999/xlink" width="500" zoomAndPan="magnify" viewBox="0 0 375 374.999991" height="500" preserveAspectRatio="xMidYMid meet" version="1.0"><defs><clipPath id="ba37421f27"><path d="M 81 74.96875 L 140 74.96875 L 140 134 L 81 134 Z M 81 74.96875 " clip-rule="nonzero"/></clipPath><clipPath id="24af5e8ef7"><path d="M 80.878906 158 L 140 158 L 140 217 L 80.878906 217 Z M 80.878906 158 " clip-rule="nonzero"/></clipPath><clipPath id="6de4b8e5bb"><path d="M 235 158 L 293.878906 158 L 293.878906 217 L 235 217 Z M 235 158 " clip-rule="nonzero"/></clipPath><clipPath id="9a0285e938"><path d="M 80.878906 241 L 140 241 L 140 299.96875 L 80.878906 299.96875 Z M 80.878906 241 " clip-rule="nonzero"/></clipPath></defs><path fill="#ffffff" d="M 133.878906 258.507812 C 131.566406 254.019531 128.027344 250.273438 123.703125 247.710938 C 119.714844 245.34375 115.058594 243.984375 110.082031 243.984375 C 95.3125 243.984375 83.335938 255.96875 83.335938 270.753906 C 83.335938 285.539062 95.3125 297.523438 110.082031 297.523438 C 124.855469 297.523438 136.828125 285.539062 136.828125 270.753906 C 136.828125 266.34375 135.765625 262.179688 133.878906 258.507812 Z M 133.878906 258.507812 " fill-opacity="1" fill-rule="nonzero"/><path fill="#ffffff" d="M 88.875 275.15625 C 88.875 260.371094 100.851562 248.386719 115.621094 248.386719 C 120.597656 248.386719 125.253906 249.746094 129.242188 252.113281 C 129.273438 252.132812 129.300781 252.152344 129.332031 252.167969 C 127.667969 250.445312 125.777344 248.941406 123.703125 247.710938 C 119.714844 245.34375 115.058594 243.984375 110.082031 243.984375 C 95.3125 243.984375 83.335938 255.96875 83.335938 270.753906 C 83.335938 280.53125 88.570312 289.078125 96.386719 293.75 C 91.738281 288.933594 88.875 282.382812 88.875 275.15625 Z M 88.875 275.15625 " fill-opacity="1" fill-rule="nonzero"/><path fill="#ffffff" d="M 264.625 160.699219 C 255.304688 160.699219 247.097656 165.46875 242.308594 172.703125 C 239.507812 176.933594 237.878906 182.011719 237.878906 187.46875 C 237.878906 191.800781 238.902344 195.886719 240.722656 199.503906 C 245.125 208.242188 254.175781 214.242188 264.625 214.242188 C 279.394531 214.242188 291.371094 202.257812 291.371094 187.46875 C 291.371094 172.683594 279.394531 160.699219 264.625 160.699219 Z M 264.625 160.699219 " fill-opacity="1" fill-rule="nonzero"/><path fill="#ffffff" d="M 246.421875 204.066406 C 244.605469 200.453125 243.578125 196.363281 243.578125 192.035156 C 243.578125 186.578125 245.210938 181.5 248.011719 177.269531 C 252.800781 170.035156 261.007812 165.265625 270.328125 165.265625 C 275.324219 165.265625 280.003906 166.640625 284.003906 169.03125 C 279.132812 163.902344 272.253906 160.699219 264.625 160.699219 C 255.304688 160.699219 247.097656 165.46875 242.308594 172.703125 C 239.507812 176.933594 237.878906 182.011719 237.878906 187.46875 C 237.878906 191.800781 238.902344 195.886719 240.722656 199.503906 C 243.015625 204.058594 246.574219 207.863281 250.933594 210.46875 C 249.136719 208.574219 247.609375 206.421875 246.421875 204.066406 Z M 246.421875 204.066406 " fill-opacity="1" fill-rule="nonzero"/><path fill="#9bc9ff" d="M 210.714844 216.070312 C 206.144531 207.882812 197.398438 202.34375 187.351562 202.34375 C 182.472656 202.34375 177.902344 203.652344 173.960938 205.933594 C 169.523438 208.507812 165.894531 212.324219 163.542969 216.90625 C 161.667969 220.566406 160.605469 224.710938 160.605469 229.109375 C 160.605469 233.757812 161.789062 238.128906 163.875 241.941406 C 168.410156 250.25 177.222656 255.886719 187.355469 255.886719 C 202.128906 255.886719 214.101562 243.894531 214.101562 229.109375 C 214.101562 224.375 212.871094 219.929688 210.714844 216.070312 Z M 210.714844 216.070312 " fill-opacity="1" fill-rule="nonzero"/><path fill="#9bc9ff" d="M 168.273438 246.832031 C 166.1875 243.019531 165.003906 238.648438 165.003906 234 C 165.003906 229.605469 166.066406 225.457031 167.941406 221.796875 C 170.292969 217.214844 173.921875 213.398438 178.359375 210.824219 C 182.300781 208.542969 186.871094 207.234375 191.753906 207.234375 C 198.464844 207.234375 204.597656 209.710938 209.292969 213.796875 C 204.460938 206.875 196.4375 202.34375 187.355469 202.34375 C 182.472656 202.34375 177.902344 203.652344 173.960938 205.933594 C 169.523438 208.507812 165.894531 212.324219 163.542969 216.90625 C 161.667969 220.566406 160.605469 224.710938 160.605469 229.109375 C 160.605469 233.757812 161.789062 238.128906 163.875 241.941406 C 165.410156 244.75 167.433594 247.25 169.828125 249.335938 C 169.269531 248.53125 168.746094 247.695312 168.273438 246.832031 Z M 168.273438 246.832031 " fill-opacity="1" fill-rule="nonzero"/><path fill="#ffffff" d="M 133.984375 175.570312 C 129.582031 166.828125 120.53125 160.832031 110.082031 160.832031 C 95.3125 160.832031 83.335938 172.816406 83.335938 187.601562 C 83.335938 202.386719 95.3125 214.371094 110.082031 214.371094 C 119.554688 214.371094 127.871094 209.445312 132.625 202.015625 C 135.289062 197.855469 136.828125 192.910156 136.828125 187.601562 C 136.828125 183.277344 135.804688 179.1875 133.984375 175.570312 Z M 133.984375 175.570312 " fill-opacity="1" fill-rule="nonzero"/><path fill="#ffffff" d="M 87.734375 193.144531 C 87.734375 178.359375 99.710938 166.375 114.480469 166.375 C 121.699219 166.375 128.246094 169.238281 133.058594 173.886719 C 128.386719 166.070312 119.84375 160.832031 110.082031 160.832031 C 95.3125 160.832031 83.335938 172.816406 83.335938 187.601562 C 83.335938 195.160156 86.46875 201.984375 91.503906 206.851562 C 89.113281 202.84375 87.734375 198.15625 87.734375 193.144531 Z M 87.734375 193.144531 " fill-opacity="1" fill-rule="nonzero"/><path fill="#9bc9ff" d="M 110.476562 77.414062 C 95.707031 77.414062 83.730469 89.398438 83.730469 104.1875 C 83.730469 118.972656 95.707031 130.957031 110.476562 130.957031 C 115.3125 130.957031 119.847656 129.675781 123.761719 127.429688 C 127.667969 125.1875 130.957031 121.988281 133.300781 118.152344 C 135.789062 114.085938 137.226562 109.300781 137.226562 104.1875 C 137.226562 89.398438 125.25 77.414062 110.476562 77.414062 Z M 110.476562 77.414062 " fill-opacity="1" fill-rule="nonzero"/><path fill="#9bc9ff" d="M 87.640625 110.21875 C 87.640625 95.433594 99.617188 83.449219 114.386719 83.449219 C 122.507812 83.449219 129.78125 87.074219 134.683594 92.792969 C 130.410156 83.707031 121.179688 77.414062 110.476562 77.414062 C 95.707031 77.414062 83.730469 89.398438 83.730469 104.1875 C 83.730469 110.84375 86.164062 116.925781 90.179688 121.609375 C 88.554688 118.152344 87.640625 114.292969 87.640625 110.21875 Z M 87.640625 110.21875 " fill-opacity="1" fill-rule="nonzero"/><path fill="#9bc9ff" d="M 187.355469 119.058594 C 177.082031 119.058594 168.160156 124.855469 163.683594 133.359375 C 161.71875 137.078125 160.605469 141.320312 160.605469 145.824219 C 160.605469 150.699219 161.90625 155.265625 164.179688 159.203125 C 166.523438 163.269531 169.910156 166.65625 173.972656 169.011719 C 177.90625 171.289062 182.476562 172.59375 187.355469 172.59375 C 198.027344 172.59375 207.238281 166.339844 211.527344 157.296875 C 213.175781 153.824219 214.101562 149.929688 214.101562 145.824219 C 214.101562 131.042969 202.128906 119.058594 187.355469 119.058594 Z M 187.355469 119.058594 " fill-opacity="1" fill-rule="nonzero"/><path fill="#9bc9ff" d="M 164.191406 151.367188 C 164.191406 146.863281 165.304688 142.625 167.269531 138.902344 C 171.746094 130.398438 180.664062 124.605469 190.9375 124.605469 C 199.179688 124.605469 206.546875 128.335938 211.453125 134.199219 C 207.128906 125.238281 197.960938 119.058594 187.355469 119.058594 C 177.082031 119.058594 168.160156 124.855469 163.683594 133.359375 C 161.71875 137.078125 160.605469 141.320312 160.605469 145.824219 C 160.605469 150.699219 161.90625 155.265625 164.179688 159.203125 C 164.949219 160.542969 165.847656 161.796875 166.832031 162.976562 C 165.140625 159.464844 164.191406 155.527344 164.191406 151.367188 Z M 164.191406 151.367188 " fill-opacity="1" fill-rule="nonzero"/><g clip-path="url(#ba37421f27)"><path fill="#1e81ce" d="M 110.476562 133.402344 C 94.382812 133.402344 81.285156 120.296875 81.285156 104.1875 C 81.285156 88.078125 94.382812 74.96875 110.476562 74.96875 C 126.574219 74.96875 139.667969 88.078125 139.667969 104.1875 C 139.667969 109.578125 138.1875 114.847656 135.382812 119.429688 C 132.828125 123.609375 129.230469 127.109375 124.976562 129.550781 C 120.585938 132.070312 115.570312 133.402344 110.476562 133.402344 Z M 110.476562 79.863281 C 97.078125 79.863281 86.171875 90.773438 86.171875 104.1875 C 86.171875 117.597656 97.078125 128.511719 110.476562 128.511719 C 114.71875 128.511719 118.894531 127.402344 122.546875 125.308594 C 126.089844 123.273438 129.085938 120.359375 131.214844 116.875 C 133.550781 113.0625 134.78125 108.675781 134.78125 104.1875 C 134.78125 90.773438 123.878906 79.863281 110.476562 79.863281 Z M 110.476562 79.863281 " fill-opacity="1" fill-rule="nonzero"/></g><g clip-path="url(#24af5e8ef7)"><path fill="#1e81ce" d="M 110.082031 216.816406 C 93.984375 216.816406 80.890625 203.710938 80.890625 187.601562 C 80.890625 171.492188 93.984375 158.386719 110.082031 158.386719 C 121.175781 158.386719 131.167969 164.550781 136.167969 174.46875 C 138.230469 178.574219 139.273438 182.992188 139.273438 187.601562 C 139.273438 193.203125 137.6875 198.644531 134.683594 203.335938 C 129.28125 211.777344 120.085938 216.816406 110.082031 216.816406 Z M 110.082031 163.277344 C 96.679688 163.277344 85.777344 174.191406 85.777344 187.601562 C 85.777344 201.015625 96.679688 211.925781 110.082031 211.925781 C 118.410156 211.925781 126.070312 207.730469 130.570312 200.699219 C 133.066406 196.796875 134.386719 192.265625 134.386719 187.601562 C 134.386719 183.761719 133.515625 180.082031 131.800781 176.667969 C 127.640625 168.410156 119.320312 163.277344 110.082031 163.277344 Z M 110.082031 163.277344 " fill-opacity="1" fill-rule="nonzero"/></g><path fill="#1e81ce" d="M 187.355469 175.042969 C 182.21875 175.042969 177.167969 173.6875 172.75 171.125 C 168.316406 168.558594 164.621094 164.859375 162.0625 160.425781 C 159.511719 156.003906 158.164062 150.957031 158.164062 145.824219 C 158.164062 141.089844 159.324219 136.382812 161.523438 132.214844 C 166.589844 122.59375 176.488281 116.613281 187.355469 116.613281 C 203.449219 116.613281 216.542969 129.71875 216.542969 145.824219 C 216.542969 150.210938 215.597656 154.421875 213.730469 158.347656 C 208.925781 168.488281 198.570312 175.042969 187.355469 175.042969 Z M 187.355469 121.507812 C 178.308594 121.507812 170.066406 126.484375 165.847656 134.5 C 163.992188 138.015625 163.050781 141.824219 163.050781 145.824219 C 163.050781 150.097656 164.171875 154.300781 166.292969 157.980469 C 168.425781 161.671875 171.503906 164.753906 175.195312 166.894531 C 178.875 169.023438 183.078125 170.148438 187.355469 170.148438 C 196.695312 170.148438 205.316406 164.691406 209.316406 156.246094 C 210.871094 152.980469 211.65625 149.476562 211.65625 145.824219 C 211.65625 132.414062 200.753906 121.507812 187.355469 121.507812 Z M 187.355469 121.507812 " fill-opacity="1" fill-rule="nonzero"/><path fill="#1e81ce" d="M 187.355469 258.332031 C 176.671875 258.332031 166.855469 252.5 161.730469 243.113281 C 159.398438 238.851562 158.164062 234.007812 158.164062 229.109375 C 158.164062 224.417969 159.242188 219.9375 161.367188 215.789062 C 163.9375 210.78125 167.867188 206.640625 172.738281 203.820312 C 177.160156 201.253906 182.214844 199.898438 187.351562 199.898438 C 197.921875 199.898438 207.691406 205.636719 212.847656 214.875 C 215.265625 219.207031 216.542969 224.128906 216.542969 229.109375 C 216.542969 245.222656 203.449219 258.332031 187.355469 258.332031 Z M 187.355469 204.789062 C 183.074219 204.789062 178.867188 205.917969 175.1875 208.050781 C 171.132812 210.402344 167.855469 213.851562 165.71875 218.023438 C 163.945312 221.472656 163.050781 225.203125 163.050781 229.109375 C 163.050781 233.1875 164.078125 237.21875 166.019531 240.765625 C 170.285156 248.582031 178.460938 253.4375 187.351562 253.4375 C 200.753906 253.4375 211.65625 242.523438 211.65625 229.109375 C 211.65625 224.964844 210.59375 220.867188 208.582031 217.261719 C 204.289062 209.570312 196.152344 204.789062 187.355469 204.789062 Z M 187.355469 204.789062 " fill-opacity="1" fill-rule="nonzero"/><g clip-path="url(#6de4b8e5bb)"><path fill="#1e81ce" d="M 264.625 216.6875 C 253.53125 216.6875 243.535156 210.523438 238.539062 200.601562 C 236.476562 196.503906 235.433594 192.085938 235.433594 187.46875 C 235.433594 181.707031 237.105469 176.136719 240.273438 171.351562 C 245.703125 163.152344 254.804688 158.253906 264.625 158.253906 C 280.722656 158.253906 293.816406 171.359375 293.816406 187.46875 C 293.816406 203.578125 280.722656 216.6875 264.625 216.6875 Z M 264.625 163.144531 C 256.449219 163.144531 248.871094 167.222656 244.347656 174.054688 C 241.710938 178.035156 240.320312 182.671875 240.320312 187.46875 C 240.320312 191.316406 241.191406 194.996094 242.90625 198.402344 C 247.066406 206.664062 255.390625 211.796875 264.625 211.796875 C 278.027344 211.796875 288.929688 200.882812 288.929688 187.46875 C 288.929688 174.058594 278.027344 163.144531 264.625 163.144531 Z M 264.625 163.144531 " fill-opacity="1" fill-rule="nonzero"/></g><g clip-path="url(#9a0285e938)"><path fill="#1e81ce" d="M 110.082031 299.96875 C 93.984375 299.96875 80.890625 286.863281 80.890625 270.753906 C 80.890625 254.644531 93.984375 241.539062 110.082031 241.539062 C 115.324219 241.539062 120.464844 242.945312 124.949219 245.609375 C 129.6875 248.414062 133.527344 252.488281 136.050781 257.386719 C 138.1875 261.550781 139.273438 266.050781 139.273438 270.753906 C 139.273438 286.863281 126.179688 299.96875 110.082031 299.96875 Z M 110.082031 246.429688 C 96.679688 246.429688 85.777344 257.34375 85.777344 270.753906 C 85.777344 284.167969 96.679688 295.078125 110.082031 295.078125 C 123.484375 295.078125 134.386719 284.167969 134.386719 270.753906 C 134.386719 266.832031 133.484375 263.089844 131.703125 259.625 C 129.605469 255.546875 126.40625 252.15625 122.457031 249.816406 C 118.726562 247.601562 114.445312 246.429688 110.082031 246.429688 Z M 110.082031 246.429688 " fill-opacity="1" fill-rule="nonzero"/></g><path fill="#1e81ce" d="M 107.507812 275.511719 C 106.847656 275.511719 106.199219 275.246094 105.722656 274.742188 C 104.960938 273.925781 104.84375 272.691406 105.449219 271.75 L 144.582031 210.488281 L 106.445312 192.121094 C 105.621094 191.71875 105.085938 190.890625 105.0625 189.972656 C 105.042969 189.054688 105.535156 188.203125 106.34375 187.765625 L 145.777344 166.394531 L 108.488281 108.082031 C 107.894531 107.15625 107.996094 105.945312 108.730469 105.128906 C 109.464844 104.308594 110.65625 104.085938 111.636719 104.574219 L 189.804688 143.691406 C 189.824219 143.703125 189.84375 143.710938 189.863281 143.722656 L 268.027344 182.835938 C 268.839844 183.242188 269.359375 184.066406 269.378906 184.972656 C 269.398438 185.882812 268.914062 186.726562 268.117188 187.164062 L 191.097656 229.699219 C 191 230.050781 190.824219 230.382812 190.570312 230.667969 C 189.929688 231.390625 188.9375 231.65625 188.039062 231.386719 L 108.6875 275.210938 C 108.316406 275.414062 107.910156 275.511719 107.507812 275.511719 Z M 149.015625 212.625 L 114.742188 266.277344 L 182.605469 228.804688 Z M 165.070312 187.492188 L 189.167969 225.175781 L 261.683594 185.132812 L 189.617188 149.066406 Z M 151.667969 208.472656 L 182.039062 223.101562 L 162.171875 192.03125 Z M 112.875 189.789062 L 147.230469 206.335938 L 159.269531 187.496094 L 148.417969 170.527344 Z M 152.726562 168.191406 L 162.167969 182.953125 L 181.585938 152.550781 Z M 117.382812 112.917969 L 150.085938 164.058594 L 183.449219 145.980469 Z M 117.382812 112.917969 " fill-opacity="1" fill-rule="nonzero"/></svg>