<svg xmlns="http://www.w3.org/2000/svg" xmlns:xlink="http://www.w3.org/1999/xlink" width="500" zoomAndPan="magnify" viewBox="0 0 375 374.999991" height="500" preserveAspectRatio="xMidYMid meet" version="1.0"><defs><clipPath id="a38bd400d6"><path d="M 75 75 L 300 75 L 300 300 L 75 300 Z M 75 75 " clip-rule="nonzero"/></clipPath></defs><path fill="#ed3947" d="M 297.527344 187.46875 C 297.527344 248.25 248.253906 297.523438 187.46875 297.523438 C 126.683594 297.523438 77.40625 248.25 77.40625 187.46875 C 77.40625 126.683594 126.683594 77.40625 187.46875 77.40625 C 248.253906 77.40625 297.527344 126.683594 297.527344 187.46875 " fill-opacity="1" fill-rule="nonzero"/><g clip-path="url(#a38bd400d6)"><path fill="#0c1216" d="M 297.527344 187.46875 L 295.101562 187.46875 C 295.101562 217.195312 283.058594 244.09375 263.578125 263.578125 C 244.09375 283.058594 217.199219 295.101562 187.46875 295.101562 C 157.734375 295.101562 130.84375 283.058594 111.355469 263.578125 C 91.871094 244.09375 79.832031 217.195312 79.828125 187.46875 C 79.832031 157.734375 91.871094 130.839844 111.355469 111.355469 C 130.84375 91.871094 157.734375 79.832031 187.46875 79.828125 C 217.199219 79.832031 244.09375 91.871094 263.578125 111.355469 C 283.058594 130.839844 295.101562 157.734375 295.101562 187.46875 L 299.949219 187.46875 C 299.953125 156.414062 287.355469 128.273438 267.003906 107.929688 C 246.65625 87.578125 218.519531 74.984375 187.46875 74.984375 C 156.414062 74.984375 128.277344 87.578125 107.929688 107.929688 C 87.578125 128.273438 74.984375 156.414062 74.984375 187.46875 C 74.984375 218.519531 87.578125 246.65625 107.929688 267.003906 C 128.277344 287.355469 156.414062 299.949219 187.46875 299.949219 C 218.519531 299.949219 246.65625 287.355469 267.003906 267.003906 C 287.355469 246.65625 299.953125 218.519531 299.949219 187.46875 L 297.527344 187.46875 " fill-opacity="1" fill-rule="nonzero"/></g><path fill="#ffffff" d="M 280.191406 187.46875 C 280.191406 238.675781 238.675781 280.191406 187.46875 280.191406 C 136.257812 280.191406 94.742188 238.675781 94.742188 187.46875 C 94.742188 136.257812 136.257812 94.738281 187.46875 94.738281 C 238.675781 94.738281 280.191406 136.257812 280.191406 187.46875 " fill-opacity="1" fill-rule="nonzero"/><path fill="#0c1216" d="M 280.191406 187.46875 L 277.769531 187.46875 C 277.769531 212.410156 267.664062 234.96875 251.320312 251.320312 C 234.972656 267.664062 212.410156 277.765625 187.46875 277.765625 C 162.523438 277.765625 139.964844 267.664062 123.613281 251.320312 C 107.265625 234.96875 97.164062 212.410156 97.164062 187.46875 C 97.164062 162.519531 107.265625 139.960938 123.613281 123.613281 C 139.964844 107.265625 162.523438 97.164062 187.46875 97.164062 C 212.410156 97.164062 234.972656 107.265625 251.320312 123.613281 C 267.664062 139.960938 277.769531 162.519531 277.769531 187.46875 L 282.613281 187.46875 C 282.613281 161.199219 271.960938 137.398438 254.746094 120.183594 C 237.535156 102.972656 213.734375 92.316406 187.46875 92.316406 C 161.203125 92.316406 137.398438 102.972656 120.1875 120.183594 C 102.972656 137.398438 92.316406 161.199219 92.320312 187.46875 C 92.316406 213.730469 102.972656 237.535156 120.1875 254.742188 C 137.398438 271.960938 161.199219 282.613281 187.46875 282.613281 C 213.734375 282.613281 237.535156 271.960938 254.746094 254.742188 C 271.960938 237.535156 282.613281 213.730469 282.613281 187.46875 L 280.191406 187.46875 " fill-opacity="1" fill-rule="nonzero"/><path fill="#ffffff" d="M 266.839844 139.527344 L 252.417969 148.238281 " fill-opacity="1" fill-rule="nonzero"/><path fill="#0c1216" d="M 265.585938 137.453125 L 251.164062 146.164062 C 250.019531 146.855469 249.652344 148.347656 250.34375 149.492188 C 251.035156 150.636719 252.523438 151.003906 253.667969 150.3125 L 268.09375 141.601562 C 269.238281 140.910156 269.605469 139.421875 268.914062 138.277344 C 268.222656 137.128906 266.734375 136.761719 265.585938 137.453125 " fill-opacity="1" fill-rule="nonzero"/><path fill="#ffffff" d="M 122.519531 226.6875 L 108.09375 235.402344 " fill-opacity="1" fill-rule="nonzero"/><path fill="#0c1216" d="M 121.265625 224.617188 L 106.839844 233.324219 C 105.699219 234.019531 105.328125 235.507812 106.019531 236.652344 C 106.710938 237.796875 108.203125 238.167969 109.347656 237.476562 L 123.769531 228.761719 C 124.917969 228.074219 125.285156 226.582031 124.589844 225.4375 C 123.902344 224.289062 122.410156 223.921875 121.265625 224.617188 " fill-opacity="1" fill-rule="nonzero"/><path fill="#ffffff" d="M 234.804688 107.734375 L 226.203125 122.222656 " fill-opacity="1" fill-rule="nonzero"/><path fill="#0c1216" d="M 232.71875 106.496094 L 224.117188 120.984375 C 223.4375 122.136719 223.8125 123.621094 224.964844 124.304688 C 226.117188 124.988281 227.605469 124.609375 228.285156 123.457031 L 236.886719 108.96875 C 237.570312 107.816406 237.191406 106.332031 236.042969 105.648438 C 234.890625 104.964844 233.402344 105.347656 232.71875 106.496094 " fill-opacity="1" fill-rule="nonzero"/><path fill="#ffffff" d="M 148.734375 252.707031 L 140.128906 267.191406 " fill-opacity="1" fill-rule="nonzero"/><path fill="#0c1216" d="M 146.648438 251.46875 L 138.046875 265.957031 C 137.363281 267.109375 137.742188 268.597656 138.894531 269.277344 C 140.042969 269.960938 141.53125 269.582031 142.214844 268.433594 L 150.816406 253.941406 C 151.5 252.792969 151.121094 251.304688 149.96875 250.625 C 148.816406 249.941406 147.332031 250.320312 146.648438 251.46875 " fill-opacity="1" fill-rule="nonzero"/><path fill="#0c1216" d="M 280.191406 185.039062 L 263.34375 185.039062 C 262.007812 185.039062 260.921875 186.125 260.921875 187.464844 C 260.921875 188.800781 262.007812 189.886719 263.34375 189.886719 L 280.191406 189.886719 C 281.53125 189.886719 282.613281 188.800781 282.613281 187.464844 C 282.613281 186.125 281.53125 185.039062 280.191406 185.039062 " fill-opacity="1" fill-rule="nonzero"/><path fill="#0c1216" d="M 111.59375 185.039062 L 94.742188 185.039062 C 93.40625 185.039062 92.320312 186.125 92.320312 187.464844 C 92.320312 188.800781 93.40625 189.886719 94.742188 189.886719 L 111.59375 189.886719 C 112.929688 189.886719 114.015625 188.800781 114.015625 187.464844 C 114.015625 186.125 112.929688 185.039062 111.59375 185.039062 " fill-opacity="1" fill-rule="nonzero"/><path fill="#ffffff" d="M 105.714844 143.714844 L 120.570312 151.664062 " fill-opacity="1" fill-rule="nonzero"/><path fill="#0c1216" d="M 104.570312 145.851562 L 119.425781 153.800781 C 120.605469 154.433594 122.074219 153.988281 122.703125 152.808594 C 123.335938 151.628906 122.890625 150.160156 121.710938 149.53125 L 106.855469 141.578125 C 105.675781 140.949219 104.207031 141.394531 103.578125 142.574219 C 102.945312 143.753906 103.390625 145.222656 104.570312 145.851562 " fill-opacity="1" fill-rule="nonzero"/><path fill="#ffffff" d="M 254.367188 223.265625 L 269.222656 231.214844 " fill-opacity="1" fill-rule="nonzero"/><path fill="#0c1216" d="M 253.222656 225.398438 L 268.078125 233.351562 C 269.257812 233.980469 270.726562 233.539062 271.359375 232.355469 C 271.988281 231.175781 271.542969 229.707031 270.367188 229.078125 L 255.507812 221.128906 C 254.328125 220.5 252.863281 220.941406 252.230469 222.121094 C 251.601562 223.300781 252.042969 224.769531 253.222656 225.398438 " fill-opacity="1" fill-rule="nonzero"/><path fill="#ffffff" d="M 137.207031 109.542969 L 146.339844 123.703125 " fill-opacity="1" fill-rule="nonzero"/><path fill="#0c1216" d="M 135.167969 110.855469 L 144.304688 125.015625 C 145.03125 126.140625 146.53125 126.464844 147.652344 125.738281 C 148.777344 125.011719 149.101562 123.515625 148.375 122.390625 L 139.242188 108.230469 C 138.515625 107.105469 137.019531 106.78125 135.894531 107.503906 C 134.769531 108.234375 134.445312 109.730469 135.167969 110.855469 " fill-opacity="1" fill-rule="nonzero"/><path fill="#ffffff" d="M 228.59375 251.226562 L 237.726562 265.386719 " fill-opacity="1" fill-rule="nonzero"/><path fill="#0c1216" d="M 226.558594 252.539062 L 235.691406 266.699219 C 236.417969 267.824219 237.917969 268.148438 239.042969 267.421875 C 240.167969 266.695312 240.488281 265.199219 239.765625 264.074219 L 230.632812 249.914062 C 229.902344 248.789062 228.40625 248.464844 227.28125 249.191406 C 226.15625 249.917969 225.832031 251.414062 226.558594 252.539062 " fill-opacity="1" fill-rule="nonzero"/><path fill="#0c1216" d="M 185.042969 94.738281 L 185.042969 111.589844 C 185.042969 112.929688 186.128906 114.011719 187.46875 114.011719 C 188.804688 114.011719 189.890625 112.929688 189.890625 111.589844 L 189.890625 94.738281 C 189.890625 93.402344 188.804688 92.316406 187.46875 92.316406 C 186.128906 92.316406 185.042969 93.402344 185.042969 94.738281 " fill-opacity="1" fill-rule="nonzero"/><path fill="#0c1216" d="M 185.042969 263.339844 L 185.042969 280.191406 C 185.042969 281.527344 186.128906 282.613281 187.46875 282.613281 C 188.804688 282.613281 189.890625 281.527344 189.890625 280.191406 L 189.890625 263.339844 C 189.890625 262 188.804688 260.917969 187.46875 260.917969 C 186.128906 260.917969 185.042969 262 185.042969 263.339844 " fill-opacity="1" fill-rule="nonzero"/><path fill="#0c1216" d="M 188.878906 183.222656 C 188.878906 184.003906 188.246094 184.636719 187.46875 184.636719 C 186.6875 184.636719 186.050781 184.003906 186.050781 183.222656 L 186.050781 140.945312 C 186.050781 140.160156 186.6875 139.527344 187.46875 139.527344 C 188.246094 139.527344 188.878906 140.160156 188.878906 140.945312 L 188.878906 183.222656 " fill-opacity="1" fill-rule="nonzero"/><path fill="#0c1216" d="M 219.160156 219.875 C 218.324219 220.691406 216.976562 220.675781 216.15625 219.835938 L 188.070312 191.070312 C 187.253906 190.230469 187.269531 188.886719 188.105469 188.066406 C 188.945312 187.246094 190.289062 187.265625 191.105469 188.105469 L 219.195312 216.871094 C 220.015625 217.710938 220 219.054688 219.160156 219.875 " fill-opacity="1" fill-rule="nonzero"/><path fill="#ed3947" d="M 188.878906 186.402344 C 188.878906 187.210938 188.402344 187.863281 187.820312 187.863281 L 129.222656 187.863281 C 128.636719 187.863281 128.160156 187.210938 128.160156 186.402344 C 128.160156 185.597656 128.636719 184.945312 129.222656 184.945312 L 187.820312 184.945312 C 188.402344 184.945312 188.878906 185.597656 188.878906 186.402344 " fill-opacity="1" fill-rule="nonzero"/><path fill="#0c1216" d="M 195.914062 187.464844 C 195.914062 192.128906 192.128906 195.910156 187.46875 195.910156 C 182.800781 195.910156 179.023438 192.128906 179.023438 187.464844 C 179.023438 182.800781 182.800781 179.019531 187.46875 179.019531 C 192.128906 179.019531 195.914062 182.800781 195.914062 187.464844 " fill-opacity="1" fill-rule="nonzero"/></svg>