<svg xmlns="http://www.w3.org/2000/svg" xmlns:xlink="http://www.w3.org/1999/xlink" width="500" zoomAndPan="magnify" viewBox="0 0 375 374.999991" height="500" preserveAspectRatio="xMidYMid meet" version="1.0"><path fill="#7738c7" d="M 280.59375 187.5 C 280.59375 197.25 239.273438 236 188.300781 236 C 137.332031 236 96.425781 199.367188 96.011719 187.5 C 95.59375 175.632812 137.332031 139 188.300781 139 C 239.273438 139 280.59375 177.75 280.59375 187.5 Z M 280.59375 187.5 " fill-opacity="1" fill-rule="nonzero"/><path fill="#ff4b3d" d="M 108.675781 87.3125 C 103.96875 87.300781 100.316406 87.53125 99.546875 88.144531 C 97.089844 90.109375 98.320312 96.75 100.039062 99.207031 C 101.761719 101.664062 121.929688 100.683594 122.667969 101.910156 C 123.40625 103.140625 122.914062 127.722656 124.144531 133.625 C 125.375 139.527344 173.089844 170.992188 174.320312 171.730469 L 180.910156 164.753906 C 180.953125 166.511719 181.035156 170.050781 181.035156 170.050781 L 193.054688 168.304688 C 193.054688 168.304688 193.101562 165.125 193.128906 163.585938 L 200.824219 171.730469 C 202.054688 170.996094 249.769531 139.527344 251 133.625 C 252.230469 127.726562 251.738281 103.140625 252.476562 101.914062 C 253.210938 100.683594 273.378906 101.667969 275.101562 99.207031 C 276.824219 96.75 278.054688 90.113281 275.59375 88.144531 C 273.132812 86.179688 241.160156 88.144531 239.4375 89.375 C 237.714844 90.601562 238.453125 130.675781 237.226562 131.90625 C 236.027344 133.101562 195.21875 160.996094 193.144531 162.414062 C 193.363281 148.644531 193.960938 102.777344 192.265625 95.945312 C 190.28125 87.960938 183.125 89.957031 181.15625 94.199219 C 179.558594 97.644531 180.441406 143.785156 180.839844 161.621094 C 175.726562 158.125 139.0625 133.050781 137.917969 131.90625 C 136.6875 130.675781 137.425781 90.601562 135.703125 89.375 C 134.519531 88.527344 119.035156 87.335938 108.675781 87.3125 Z M 174.320312 203.269531 C 173.089844 204.007812 125.375 235.476562 124.144531 241.375 C 122.914062 247.277344 123.40625 271.859375 122.667969 273.089844 C 121.929688 274.320312 101.761719 273.335938 100.039062 275.792969 C 98.316406 278.253906 97.089844 284.890625 99.546875 286.855469 C 102.007812 288.824219 133.980469 286.855469 135.703125 285.628906 C 137.425781 284.398438 136.6875 244.324219 137.917969 243.097656 C 139.0625 241.949219 175.726562 216.878906 180.839844 213.382812 C 180.441406 231.214844 179.558594 277.355469 181.15625 280.804688 C 183.125 285.042969 190.28125 287.039062 192.265625 279.054688 C 193.960938 272.226562 193.363281 226.355469 193.144531 212.589844 C 195.21875 214.007812 236.027344 241.898438 237.226562 243.097656 C 238.457031 244.324219 237.714844 284.398438 239.4375 285.628906 C 241.160156 286.855469 273.132812 288.824219 275.59375 286.855469 C 278.054688 284.890625 276.824219 278.253906 275.101562 275.792969 C 273.378906 273.335938 253.210938 274.320312 252.476562 273.089844 C 251.738281 271.859375 252.230469 247.277344 251 241.375 C 249.769531 235.476562 202.054688 204.007812 200.824219 203.269531 L 193.128906 211.414062 C 193.101562 209.875 193.054688 206.695312 193.054688 206.695312 L 181.035156 204.949219 C 181.035156 204.949219 180.953125 208.492188 180.910156 210.25 Z M 174.320312 203.269531 " fill-opacity="1" fill-rule="nonzero"/><path fill="#ffc517" d="M 187.460938 299.9375 C 187.460938 299.9375 174.058594 298.394531 173.539062 286.382812 C 173.019531 274.367188 185.210938 269.183594 191.609375 272.726562 C 198.011719 276.269531 202.851562 280.429688 200.691406 290.183594 C 198.527344 299.9375 187.460938 299.9375 187.460938 299.9375 Z M 187.460938 299.9375 " fill-opacity="1" fill-rule="nonzero"/><path fill="#ffc517" d="M 101.128906 294.527344 C 101.128906 294.527344 87.726562 292.988281 87.207031 280.972656 C 86.691406 268.960938 98.882812 263.773438 105.28125 267.316406 C 111.679688 270.859375 116.523438 275.023438 114.359375 284.777344 C 112.199219 294.527344 101.128906 294.527344 101.128906 294.527344 Z M 101.128906 294.527344 " fill-opacity="1" fill-rule="nonzero"/><path fill="#ffc517" d="M 274.011719 294.527344 C 274.011719 294.527344 287.414062 292.988281 287.933594 280.972656 C 288.453125 268.957031 276.261719 263.773438 269.863281 267.316406 C 263.460938 270.859375 258.621094 275.023438 260.78125 284.777344 C 262.945312 294.53125 274.011719 294.527344 274.011719 294.527344 Z M 274.011719 294.527344 " fill-opacity="1" fill-rule="nonzero"/><path fill="#ffc517" d="M 187.460938 75.0625 C 187.460938 75.0625 174.058594 76.605469 173.539062 88.621094 C 173.019531 100.632812 185.210938 105.820312 191.609375 102.277344 C 198.011719 98.730469 202.851562 94.570312 200.691406 84.816406 C 198.527344 75.0625 187.460938 75.0625 187.460938 75.0625 Z M 187.460938 75.0625 " fill-opacity="1" fill-rule="nonzero"/><path fill="#ffc517" d="M 101.128906 80.472656 C 101.128906 80.472656 87.726562 82.015625 87.207031 94.027344 C 86.691406 106.042969 98.882812 111.226562 105.28125 107.683594 C 111.679688 104.140625 116.523438 99.976562 114.359375 90.226562 C 112.199219 80.472656 101.128906 80.472656 101.128906 80.472656 Z M 101.128906 80.472656 " fill-opacity="1" fill-rule="nonzero"/><path fill="#ffc517" d="M 274.011719 80.472656 C 274.011719 80.472656 287.414062 82.015625 287.933594 94.027344 C 288.453125 106.042969 276.261719 111.226562 269.863281 107.683594 C 263.460938 104.140625 258.621094 99.976562 260.78125 90.226562 C 262.945312 80.472656 274.011719 80.472656 274.011719 80.472656 Z M 274.011719 80.472656 " fill-opacity="1" fill-rule="nonzero"/><path fill="#cf1531" d="M 193.378906 141.265625 C 189.71875 142.617188 185.175781 143.34375 180.464844 141.796875 C 180.585938 149.550781 180.730469 156.691406 180.839844 161.621094 C 178.148438 159.78125 166.753906 151.988281 156.359375 144.824219 C 155.636719 148.953125 154.109375 153.113281 151.367188 156.117188 C 162.851562 164.214844 173.738281 171.382812 174.320312 171.730469 L 180.910156 164.753906 C 180.953125 166.507812 181.03125 170.050781 181.03125 170.050781 L 193.054688 168.304688 C 193.054688 168.304688 193.101562 165.125 193.128906 163.585938 L 200.824219 171.730469 C 201.414062 171.375 212.808594 163.875 224.585938 155.546875 C 219.546875 150.882812 216.914062 148.75 215.851562 146.84375 C 205.128906 154.21875 194.195312 161.695312 193.144531 162.414062 C 193.214844 157.957031 193.320312 150.03125 193.378906 141.265625 Z M 174.320312 203.269531 C 173.699219 203.640625 161.285156 211.8125 148.957031 220.582031 C 152.761719 223.296875 156.238281 226.140625 158.082031 228.988281 C 167.96875 222.183594 178.300781 215.117188 180.839844 213.378906 C 180.710938 219.136719 180.535156 227.902344 180.40625 237.167969 C 184.277344 234.898438 188.628906 234.585938 193.410156 238.398438 C 193.363281 227.757812 193.226562 217.839844 193.144531 212.589844 C 194.292969 213.375 207.269531 222.242188 218.871094 230.238281 C 219.539062 226.109375 221.554688 222.46875 226.667969 220.929688 C 214.183594 212.027344 201.453125 203.648438 200.824219 203.269531 L 193.128906 211.414062 C 193.101562 209.875 193.054688 206.695312 193.054688 206.695312 L 181.035156 204.949219 C 181.035156 204.949219 180.953125 208.492188 180.910156 210.25 Z M 174.320312 203.269531 " fill-opacity="1" fill-rule="nonzero"/><path fill="#171d8f" d="M 227.605469 187.5 C 227.605469 188.789062 227.542969 190.070312 227.417969 191.351562 C 227.292969 192.632812 227.101562 193.902344 226.851562 195.164062 C 226.601562 196.425781 226.289062 197.671875 225.914062 198.90625 C 225.542969 200.136719 225.109375 201.347656 224.613281 202.535156 C 224.121094 203.722656 223.574219 204.886719 222.964844 206.019531 C 222.359375 207.15625 221.699219 208.257812 220.984375 209.328125 C 220.269531 210.398438 219.503906 211.429688 218.683594 212.425781 C 217.867188 213.417969 217.003906 214.371094 216.09375 215.28125 C 215.183594 216.191406 214.230469 217.054688 213.238281 217.871094 C 212.242188 218.6875 211.210938 219.453125 210.140625 220.167969 C 209.070312 220.882812 207.964844 221.542969 206.832031 222.148438 C 205.695312 222.753906 204.53125 223.304688 203.34375 223.796875 C 202.152344 224.289062 200.945312 224.722656 199.710938 225.097656 C 198.480469 225.46875 197.234375 225.78125 195.96875 226.03125 C 194.707031 226.285156 193.4375 226.472656 192.15625 226.597656 C 190.875 226.726562 189.589844 226.789062 188.300781 226.789062 C 187.015625 226.789062 185.730469 226.726562 184.449219 226.597656 C 183.167969 226.472656 181.898438 226.285156 180.632812 226.03125 C 179.371094 225.78125 178.125 225.46875 176.890625 225.097656 C 175.660156 224.722656 174.449219 224.289062 173.261719 223.796875 C 172.070312 223.304688 170.910156 222.753906 169.773438 222.148438 C 168.636719 221.542969 167.535156 220.882812 166.464844 220.167969 C 165.394531 219.453125 164.363281 218.6875 163.367188 217.871094 C 162.371094 217.054688 161.417969 216.191406 160.507812 215.28125 C 159.597656 214.371094 158.734375 213.417969 157.917969 212.425781 C 157.101562 211.429688 156.335938 210.398438 155.621094 209.328125 C 154.90625 208.257812 154.246094 207.15625 153.636719 206.019531 C 153.03125 204.886719 152.480469 203.722656 151.988281 202.535156 C 151.496094 201.347656 151.0625 200.136719 150.6875 198.90625 C 150.316406 197.671875 150.003906 196.425781 149.753906 195.164062 C 149.5 193.902344 149.3125 192.632812 149.1875 191.351562 C 149.058594 190.070312 148.996094 188.789062 148.996094 187.5 C 148.996094 186.214844 149.058594 184.929688 149.1875 183.648438 C 149.3125 182.371094 149.5 181.097656 149.753906 179.835938 C 150.003906 178.574219 150.316406 177.328125 150.6875 176.097656 C 151.0625 174.863281 151.496094 173.65625 151.988281 172.464844 C 152.480469 171.277344 153.03125 170.117188 153.636719 168.980469 C 154.246094 167.847656 154.90625 166.742188 155.621094 165.675781 C 156.335938 164.605469 157.101562 163.570312 157.917969 162.578125 C 158.734375 161.582031 159.597656 160.628906 160.507812 159.71875 C 161.417969 158.8125 162.371094 157.949219 163.367188 157.132812 C 164.363281 156.316406 165.394531 155.550781 166.464844 154.835938 C 167.535156 154.121094 168.636719 153.460938 169.773438 152.851562 C 170.910156 152.246094 172.070312 151.695312 173.261719 151.203125 C 174.449219 150.710938 175.660156 150.277344 176.890625 149.90625 C 178.125 149.53125 179.371094 149.21875 180.632812 148.96875 C 181.898438 148.71875 183.167969 148.527344 184.449219 148.402344 C 185.730469 148.277344 187.015625 148.214844 188.300781 148.214844 C 189.589844 148.214844 190.875 148.277344 192.15625 148.402344 C 193.4375 148.527344 194.707031 148.71875 195.96875 148.96875 C 197.234375 149.21875 198.480469 149.53125 199.710938 149.90625 C 200.945312 150.277344 202.152344 150.710938 203.34375 151.203125 C 204.53125 151.695312 205.695312 152.246094 206.832031 152.851562 C 207.964844 153.460938 209.070312 154.121094 210.140625 154.835938 C 211.210938 155.550781 212.242188 156.316406 213.238281 157.132812 C 214.230469 157.949219 215.183594 158.8125 216.09375 159.71875 C 217.003906 160.628906 217.867188 161.582031 218.683594 162.578125 C 219.503906 163.570312 220.269531 164.605469 220.984375 165.675781 C 221.699219 166.742188 222.359375 167.847656 222.964844 168.980469 C 223.574219 170.117188 224.121094 171.277344 224.617188 172.464844 C 225.109375 173.65625 225.542969 174.863281 225.914062 176.097656 C 226.289062 177.328125 226.601562 178.574219 226.851562 179.835938 C 227.101562 181.097656 227.292969 182.371094 227.417969 183.648438 C 227.542969 184.929688 227.605469 186.214844 227.605469 187.5 Z M 227.605469 187.5 " fill-opacity="1" fill-rule="nonzero"/><path fill="#ffffff" d="M 186.816406 165.839844 C 176.195312 166.675781 167.992188 175.710938 167.992188 186.578125 C 167.992188 198.0625 177.125 207.375 188.390625 207.375 C 199.652344 207.375 208.78125 198.0625 208.78125 186.578125 C 208.78125 184.914062 208.589844 183.257812 208.203125 181.644531 C 206.070312 182.808594 203.695312 183.414062 201.28125 183.414062 C 193.167969 183.417969 186.59375 176.710938 186.59375 168.441406 C 186.59375 167.566406 186.667969 166.699219 186.816406 165.839844 Z M 186.816406 165.839844 " fill-opacity="1" fill-rule="nonzero"/><path fill="#171d8f" d="M 123.476562 158.429688 C 121.609375 159.601562 119.820312 160.792969 118.113281 161.992188 C 118.414062 163.023438 118.75 164.066406 119.117188 165.109375 C 122.25 173.976562 125.554688 181.277344 130.421875 183.015625 C 135.292969 184.753906 152.335938 181.796875 153.902344 183.710938 C 155.464844 185.621094 159.117188 190.316406 154.769531 191.011719 C 150.421875 191.707031 113.726562 190.835938 111.117188 190.835938 C 109.335938 190.835938 104.96875 194.238281 101.984375 198.441406 C 104.0625 200.875 106.644531 203.472656 109.675781 206.125 C 111.773438 202.613281 113.886719 198.75 114.945312 197.792969 C 116.855469 196.054688 159.464844 198.140625 159.464844 198.140625 L 156.511719 176.582031 C 152.859375 176.582031 138.074219 177.453125 132.855469 175.886719 C 129.527344 174.890625 126.339844 165.6875 123.476562 158.429688 Z M 256.824219 161.796875 C 254.308594 168.269531 251.589844 175.039062 248.757812 175.886719 C 243.539062 177.453125 228.757812 176.582031 225.105469 176.582031 L 222.148438 198.140625 C 222.148438 198.140625 264.757812 196.054688 266.671875 197.792969 C 267.378906 198.433594 268.558594 200.382812 269.890625 202.648438 C 272.734375 199.953125 275.074219 197.386719 276.824219 195.101562 C 274.359375 192.578125 271.769531 190.835938 270.496094 190.835938 C 267.890625 190.835938 231.191406 191.707031 226.84375 191.011719 C 222.496094 190.316406 226.148438 185.621094 227.714844 183.710938 C 229.28125 181.796875 246.324219 184.753906 251.191406 183.015625 C 255.933594 181.320312 259.191406 174.34375 262.25 165.792969 C 260.542969 164.460938 258.730469 163.125 256.824219 161.796875 Z M 256.824219 161.796875 " fill-opacity="1" fill-rule="nonzero"/></svg>