<svg xmlns="http://www.w3.org/2000/svg" xmlns:xlink="http://www.w3.org/1999/xlink" width="500" zoomAndPan="magnify" viewBox="0 0 375 374.999991" height="500" preserveAspectRatio="xMidYMid meet" version="1.0"><defs><clipPath id="62076e9e52"><path d="M 75.117188 75.117188 L 138 75.117188 L 138 138 L 75.117188 138 Z M 75.117188 75.117188 " clip-rule="nonzero"/></clipPath><clipPath id="3651153ca8"><path d="M 75.117188 156 L 138 156 L 138 219 L 75.117188 219 Z M 75.117188 156 " clip-rule="nonzero"/></clipPath><clipPath id="562de22c13"><path d="M 156 75.117188 L 219 75.117188 L 219 138 L 156 138 Z M 156 75.117188 " clip-rule="nonzero"/></clipPath><clipPath id="864de63ec4"><path d="M 238 75.117188 L 300.117188 75.117188 L 300.117188 138 L 238 138 Z M 238 75.117188 " clip-rule="nonzero"/></clipPath><clipPath id="63d2a9c8ff"><path d="M 75.117188 238 L 138 238 L 138 300.117188 L 75.117188 300.117188 Z M 75.117188 238 " clip-rule="nonzero"/></clipPath><clipPath id="42c2094fa0"><path d="M 156 238 L 219 238 L 219 300.117188 L 156 300.117188 Z M 156 238 " clip-rule="nonzero"/></clipPath><clipPath id="da28ebf2b3"><path d="M 238 238 L 300.117188 238 L 300.117188 300.117188 L 238 300.117188 Z M 238 238 " clip-rule="nonzero"/></clipPath><clipPath id="7b19c0402f"><path d="M 238 156 L 300.117188 156 L 300.117188 219 L 238 219 Z M 238 156 " clip-rule="nonzero"/></clipPath></defs><g clip-path="url(#62076e9e52)"><path fill="#4575c3" d="M 129.429688 137.1875 L 82.875 137.1875 C 78.585938 137.1875 75.117188 133.714844 75.117188 129.429688 L 75.117188 82.875 C 75.117188 78.585938 78.585938 75.117188 82.875 75.117188 L 129.429688 75.117188 C 133.714844 75.117188 137.1875 78.585938 137.1875 82.875 L 137.1875 129.429688 C 137.1875 133.714844 133.714844 137.1875 129.429688 137.1875 " fill-opacity="1" fill-rule="nonzero"/></g><g clip-path="url(#3651153ca8)"><path fill="#4575c3" d="M 129.429688 218.652344 L 82.875 218.652344 C 78.585938 218.652344 75.117188 215.183594 75.117188 210.894531 L 75.117188 164.339844 C 75.117188 160.054688 78.585938 156.582031 82.875 156.582031 L 129.429688 156.582031 C 133.714844 156.582031 137.1875 160.054688 137.1875 164.339844 L 137.1875 210.894531 C 137.1875 215.183594 133.714844 218.652344 129.429688 218.652344 " fill-opacity="1" fill-rule="nonzero"/></g><g clip-path="url(#562de22c13)"><path fill="#4575c3" d="M 210.894531 137.1875 L 164.339844 137.1875 C 160.054688 137.1875 156.582031 133.714844 156.582031 129.429688 L 156.582031 82.875 C 156.582031 78.585938 160.054688 75.117188 164.339844 75.117188 L 210.894531 75.117188 C 215.183594 75.117188 218.652344 78.585938 218.652344 82.875 L 218.652344 129.429688 C 218.652344 133.714844 215.183594 137.1875 210.894531 137.1875 " fill-opacity="1" fill-rule="nonzero"/></g><path fill="#4575c3" d="M 210.894531 218.652344 L 164.339844 218.652344 C 160.054688 218.652344 156.582031 215.183594 156.582031 210.894531 L 156.582031 164.339844 C 156.582031 160.054688 160.054688 156.582031 164.339844 156.582031 L 210.894531 156.582031 C 215.183594 156.582031 218.652344 160.054688 218.652344 164.339844 L 218.652344 210.894531 C 218.652344 215.183594 215.183594 218.652344 210.894531 218.652344 " fill-opacity="1" fill-rule="nonzero"/><g clip-path="url(#864de63ec4)"><path fill="#4575c3" d="M 292.359375 137.1875 L 245.808594 137.1875 C 241.519531 137.1875 238.046875 133.714844 238.046875 129.429688 L 238.046875 82.875 C 238.046875 78.585938 241.519531 75.117188 245.808594 75.117188 L 292.359375 75.117188 C 296.648438 75.117188 300.117188 78.585938 300.117188 82.875 L 300.117188 129.429688 C 300.117188 133.714844 296.648438 137.1875 292.359375 137.1875 " fill-opacity="1" fill-rule="nonzero"/></g><g clip-path="url(#63d2a9c8ff)"><path fill="#4575c3" d="M 129.429688 300.117188 L 82.875 300.117188 C 78.585938 300.117188 75.117188 296.648438 75.117188 292.359375 L 75.117188 245.808594 C 75.117188 241.519531 78.585938 238.046875 82.875 238.046875 L 129.429688 238.046875 C 133.714844 238.046875 137.1875 241.519531 137.1875 245.808594 L 137.1875 292.359375 C 137.1875 296.648438 133.714844 300.117188 129.429688 300.117188 " fill-opacity="1" fill-rule="nonzero"/></g><g clip-path="url(#42c2094fa0)"><path fill="#4575c3" d="M 210.894531 300.117188 L 164.339844 300.117188 C 160.054688 300.117188 156.582031 296.648438 156.582031 292.359375 L 156.582031 245.808594 C 156.582031 241.519531 160.054688 238.046875 164.339844 238.046875 L 210.894531 238.046875 C 215.183594 238.046875 218.652344 241.519531 218.652344 245.808594 L 218.652344 292.359375 C 218.652344 296.648438 215.183594 300.117188 210.894531 300.117188 " fill-opacity="1" fill-rule="nonzero"/></g><g clip-path="url(#da28ebf2b3)"><path fill="#4575c3" d="M 292.359375 300.117188 L 245.808594 300.117188 C 241.519531 300.117188 238.046875 296.648438 238.046875 292.359375 L 238.046875 245.808594 C 238.046875 241.519531 241.519531 238.046875 245.808594 238.046875 L 292.359375 238.046875 C 296.648438 238.046875 300.117188 241.519531 300.117188 245.808594 L 300.117188 292.359375 C 300.117188 296.648438 296.648438 300.117188 292.359375 300.117188 " fill-opacity="1" fill-rule="nonzero"/></g><g clip-path="url(#7b19c0402f)"><path fill="#4575c3" d="M 292.359375 218.652344 L 245.808594 218.652344 C 241.519531 218.652344 238.046875 215.183594 238.046875 210.894531 L 238.046875 164.339844 C 238.046875 160.054688 241.519531 156.582031 245.808594 156.582031 L 292.359375 156.582031 C 296.648438 156.582031 300.117188 160.054688 300.117188 164.339844 L 300.117188 210.894531 C 300.117188 215.183594 296.648438 218.652344 292.359375 218.652344 " fill-opacity="1" fill-rule="nonzero"/></g><path fill="#dcedfa" d="M 123.152344 90.9375 C 121.699219 90.316406 120.046875 90.664062 118.925781 91.769531 L 115.046875 95.652344 C 113.53125 97.164062 113.53125 99.621094 115.046875 101.136719 C 115.804688 101.894531 116.789062 102.273438 117.789062 102.273438 L 117.789062 117.789062 C 117.789062 119.925781 119.53125 121.667969 121.667969 121.667969 C 123.804688 121.667969 125.546875 119.925781 125.546875 117.789062 L 125.546875 94.515625 C 125.546875 92.9375 124.609375 91.527344 123.152344 90.9375 " fill-opacity="1" fill-rule="nonzero"/><path fill="#dcedfa" d="M 102.273438 110.03125 C 102.273438 112.167969 100.53125 113.910156 98.394531 113.910156 C 96.257812 113.910156 94.515625 112.167969 94.515625 110.03125 L 94.515625 102.273438 C 94.515625 100.136719 96.257812 98.394531 98.394531 98.394531 C 100.53125 98.394531 102.273438 100.136719 102.273438 102.273438 Z M 98.394531 90.632812 C 91.96875 90.632812 86.753906 95.847656 86.753906 102.273438 L 86.753906 110.03125 C 86.753906 116.457031 91.96875 121.667969 98.394531 121.667969 C 104.820312 121.667969 110.03125 116.457031 110.03125 110.03125 L 110.03125 102.273438 C 110.03125 95.847656 104.820312 90.632812 98.394531 90.632812 " fill-opacity="1" fill-rule="nonzero"/><path fill="#dcedfa" d="M 204.621094 90.9375 C 203.164062 90.316406 201.511719 90.664062 200.390625 91.769531 L 196.511719 95.652344 C 194.996094 97.164062 194.996094 99.621094 196.511719 101.136719 C 197.269531 101.894531 198.253906 102.273438 199.253906 102.273438 L 199.253906 117.789062 C 199.253906 119.925781 200.996094 121.667969 203.132812 121.667969 C 205.269531 121.667969 207.015625 119.925781 207.015625 117.789062 L 207.015625 94.515625 C 207.015625 92.9375 206.074219 91.527344 204.621094 90.9375 " fill-opacity="1" fill-rule="nonzero"/><path fill="#dcedfa" d="M 183.738281 110.03125 C 183.738281 112.167969 181.996094 113.910156 179.859375 113.910156 C 177.722656 113.910156 175.980469 112.167969 175.980469 110.03125 L 175.980469 102.273438 C 175.980469 100.136719 177.722656 98.394531 179.859375 98.394531 C 181.996094 98.394531 183.738281 100.136719 183.738281 102.273438 Z M 179.859375 90.632812 C 173.433594 90.632812 168.222656 95.847656 168.222656 102.273438 L 168.222656 110.03125 C 168.222656 116.457031 173.433594 121.667969 179.859375 121.667969 C 186.285156 121.667969 191.496094 116.457031 191.496094 110.03125 L 191.496094 102.273438 C 191.496094 95.847656 186.285156 90.632812 179.859375 90.632812 " fill-opacity="1" fill-rule="nonzero"/><path fill="#dcedfa" d="M 286.085938 90.9375 C 284.628906 90.316406 282.980469 90.664062 281.855469 91.769531 L 277.976562 95.652344 C 276.460938 97.164062 276.460938 99.621094 277.976562 101.136719 C 278.734375 101.894531 279.722656 102.273438 280.722656 102.273438 L 280.722656 117.789062 C 280.722656 119.925781 282.464844 121.667969 284.601562 121.667969 C 286.738281 121.667969 288.480469 119.925781 288.480469 117.789062 L 288.480469 94.515625 C 288.480469 92.9375 287.539062 91.527344 286.085938 90.9375 " fill-opacity="1" fill-rule="nonzero"/><path fill="#dcedfa" d="M 265.203125 110.03125 C 265.203125 112.167969 263.460938 113.910156 261.324219 113.910156 C 259.1875 113.910156 257.445312 112.167969 257.445312 110.03125 L 257.445312 102.273438 C 257.445312 100.136719 259.1875 98.394531 261.324219 98.394531 C 263.460938 98.394531 265.203125 100.136719 265.203125 102.273438 Z M 261.324219 90.632812 C 254.898438 90.632812 249.6875 95.847656 249.6875 102.273438 L 249.6875 110.03125 C 249.6875 116.457031 254.898438 121.667969 261.324219 121.667969 C 267.75 121.667969 272.960938 116.457031 272.960938 110.03125 L 272.960938 102.273438 C 272.960938 95.847656 267.75 90.632812 261.324219 90.632812 " fill-opacity="1" fill-rule="nonzero"/><path fill="#dcedfa" d="M 123.152344 172.402344 C 121.699219 171.78125 120.046875 172.128906 118.925781 173.238281 L 115.046875 177.117188 C 113.53125 178.632812 113.53125 181.085938 115.046875 182.601562 C 115.804688 183.359375 116.789062 183.738281 117.789062 183.738281 L 117.789062 199.253906 C 117.789062 201.390625 119.53125 203.132812 121.667969 203.132812 C 123.804688 203.132812 125.546875 201.390625 125.546875 199.253906 L 125.546875 175.980469 C 125.546875 174.402344 124.609375 172.996094 123.152344 172.402344 " fill-opacity="1" fill-rule="nonzero"/><path fill="#dcedfa" d="M 102.273438 191.496094 C 102.273438 193.632812 100.53125 195.375 98.394531 195.375 C 96.257812 195.375 94.515625 193.632812 94.515625 191.496094 L 94.515625 183.738281 C 94.515625 181.601562 96.257812 179.859375 98.394531 179.859375 C 100.53125 179.859375 102.273438 181.601562 102.273438 183.738281 Z M 98.394531 172.101562 C 91.96875 172.101562 86.753906 177.3125 86.753906 183.738281 L 86.753906 191.496094 C 86.753906 197.921875 91.96875 203.132812 98.394531 203.132812 C 104.820312 203.132812 110.03125 197.921875 110.03125 191.496094 L 110.03125 183.738281 C 110.03125 177.3125 104.820312 172.101562 98.394531 172.101562 " fill-opacity="1" fill-rule="nonzero"/><path fill="#dcedfa" d="M 204.621094 172.402344 C 203.164062 171.78125 201.511719 172.128906 200.390625 173.238281 L 196.511719 177.117188 C 194.996094 178.632812 194.996094 181.085938 196.511719 182.601562 C 197.269531 183.359375 198.253906 183.738281 199.253906 183.738281 L 199.253906 199.253906 C 199.253906 201.390625 200.996094 203.132812 203.132812 203.132812 C 205.269531 203.132812 207.015625 201.390625 207.015625 199.253906 L 207.015625 175.980469 C 207.015625 174.402344 206.074219 172.996094 204.621094 172.402344 " fill-opacity="1" fill-rule="nonzero"/><path fill="#dcedfa" d="M 183.738281 191.496094 C 183.738281 193.632812 181.996094 195.375 179.859375 195.375 C 177.722656 195.375 175.980469 193.632812 175.980469 191.496094 L 175.980469 183.738281 C 175.980469 181.601562 177.722656 179.859375 179.859375 179.859375 C 181.996094 179.859375 183.738281 181.601562 183.738281 183.738281 Z M 179.859375 172.101562 C 173.433594 172.101562 168.222656 177.3125 168.222656 183.738281 L 168.222656 191.496094 C 168.222656 197.921875 173.433594 203.132812 179.859375 203.132812 C 186.285156 203.132812 191.496094 197.921875 191.496094 191.496094 L 191.496094 183.738281 C 191.496094 177.3125 186.285156 172.101562 179.859375 172.101562 " fill-opacity="1" fill-rule="nonzero"/><path fill="#dcedfa" d="M 286.085938 172.402344 C 284.628906 171.78125 282.980469 172.128906 281.855469 173.238281 L 277.976562 177.117188 C 276.460938 178.632812 276.460938 181.085938 277.976562 182.601562 C 278.734375 183.359375 279.722656 183.738281 280.722656 183.738281 L 280.722656 199.253906 C 280.722656 201.390625 282.464844 203.132812 284.601562 203.132812 C 286.738281 203.132812 288.480469 201.390625 288.480469 199.253906 L 288.480469 175.980469 C 288.480469 174.402344 287.539062 172.996094 286.085938 172.402344 " fill-opacity="1" fill-rule="nonzero"/><path fill="#dcedfa" d="M 265.203125 191.496094 C 265.203125 193.632812 263.460938 195.375 261.324219 195.375 C 259.1875 195.375 257.445312 193.632812 257.445312 191.496094 L 257.445312 183.738281 C 257.445312 181.601562 259.1875 179.859375 261.324219 179.859375 C 263.460938 179.859375 265.203125 181.601562 265.203125 183.738281 Z M 261.324219 172.101562 C 254.898438 172.101562 249.6875 177.3125 249.6875 183.738281 L 249.6875 191.496094 C 249.6875 197.921875 254.898438 203.132812 261.324219 203.132812 C 267.75 203.132812 272.960938 197.921875 272.960938 191.496094 L 272.960938 183.738281 C 272.960938 177.3125 267.75 172.101562 261.324219 172.101562 " fill-opacity="1" fill-rule="nonzero"/><path fill="#dcedfa" d="M 123.152344 253.867188 C 121.699219 253.246094 120.046875 253.597656 118.925781 254.703125 L 115.046875 258.582031 C 113.53125 260.097656 113.53125 262.550781 115.046875 264.066406 C 115.804688 264.824219 116.789062 265.203125 117.789062 265.203125 L 117.789062 280.722656 C 117.789062 282.859375 119.53125 284.601562 121.667969 284.601562 C 123.804688 284.601562 125.546875 282.859375 125.546875 280.722656 L 125.546875 257.445312 C 125.546875 255.867188 124.609375 254.460938 123.152344 253.867188 " fill-opacity="1" fill-rule="nonzero"/><path fill="#dcedfa" d="M 102.273438 272.960938 C 102.273438 275.097656 100.53125 276.839844 98.394531 276.839844 C 96.257812 276.839844 94.515625 275.097656 94.515625 272.960938 L 94.515625 265.203125 C 94.515625 263.066406 96.257812 261.324219 98.394531 261.324219 C 100.53125 261.324219 102.273438 263.066406 102.273438 265.203125 Z M 98.394531 253.566406 C 91.96875 253.566406 86.753906 258.777344 86.753906 265.203125 L 86.753906 272.960938 C 86.753906 279.386719 91.96875 284.601562 98.394531 284.601562 C 104.820312 284.601562 110.03125 279.386719 110.03125 272.960938 L 110.03125 265.203125 C 110.03125 258.777344 104.820312 253.566406 98.394531 253.566406 " fill-opacity="1" fill-rule="nonzero"/><path fill="#dcedfa" d="M 204.621094 253.867188 C 203.164062 253.246094 201.511719 253.597656 200.390625 254.703125 L 196.511719 258.582031 C 194.996094 260.097656 194.996094 262.550781 196.511719 264.066406 C 197.269531 264.824219 198.253906 265.203125 199.253906 265.203125 L 199.253906 280.722656 C 199.253906 282.859375 200.996094 284.601562 203.132812 284.601562 C 205.269531 284.601562 207.015625 282.859375 207.015625 280.722656 L 207.015625 257.445312 C 207.015625 255.867188 206.074219 254.460938 204.621094 253.867188 " fill-opacity="1" fill-rule="nonzero"/><path fill="#dcedfa" d="M 183.738281 272.960938 C 183.738281 275.097656 181.996094 276.839844 179.859375 276.839844 C 177.722656 276.839844 175.980469 275.097656 175.980469 272.960938 L 175.980469 265.203125 C 175.980469 263.066406 177.722656 261.324219 179.859375 261.324219 C 181.996094 261.324219 183.738281 263.066406 183.738281 265.203125 Z M 179.859375 253.566406 C 173.433594 253.566406 168.222656 258.777344 168.222656 265.203125 L 168.222656 272.960938 C 168.222656 279.386719 173.433594 284.601562 179.859375 284.601562 C 186.285156 284.601562 191.496094 279.386719 191.496094 272.960938 L 191.496094 265.203125 C 191.496094 258.777344 186.285156 253.566406 179.859375 253.566406 " fill-opacity="1" fill-rule="nonzero"/><path fill="#dcedfa" d="M 286.085938 253.867188 C 284.628906 253.246094 282.980469 253.597656 281.855469 254.703125 L 277.976562 258.582031 C 276.460938 260.097656 276.460938 262.550781 277.976562 264.066406 C 278.734375 264.824219 279.722656 265.203125 280.722656 265.203125 L 280.722656 280.722656 C 280.722656 282.859375 282.464844 284.601562 284.601562 284.601562 C 286.738281 284.601562 288.480469 282.859375 288.480469 280.722656 L 288.480469 257.445312 C 288.480469 255.867188 287.539062 254.460938 286.085938 253.867188 " fill-opacity="1" fill-rule="nonzero"/><path fill="#dcedfa" d="M 265.203125 272.960938 C 265.203125 275.097656 263.460938 276.839844 261.324219 276.839844 C 259.1875 276.839844 257.445312 275.097656 257.445312 272.960938 L 257.445312 265.203125 C 257.445312 263.066406 259.1875 261.324219 261.324219 261.324219 C 263.460938 261.324219 265.203125 263.066406 265.203125 265.203125 Z M 261.324219 253.566406 C 254.898438 253.566406 249.6875 258.777344 249.6875 265.203125 L 249.6875 272.960938 C 249.6875 279.386719 254.898438 284.601562 261.324219 284.601562 C 267.75 284.601562 272.960938 279.386719 272.960938 272.960938 L 272.960938 265.203125 C 272.960938 258.777344 267.75 253.566406 261.324219 253.566406 " fill-opacity="1" fill-rule="nonzero"/></svg>