<svg xmlns="http://www.w3.org/2000/svg" xmlns:xlink="http://www.w3.org/1999/xlink" width="500" zoomAndPan="magnify" viewBox="0 0 375 374.999991" height="500" preserveAspectRatio="xMidYMid meet" version="1.0"><defs><clipPath id="6f7bc26649"><path d="M 168 300 L 214 300 L 214 313.75 L 168 313.75 Z M 168 300 " clip-rule="nonzero"/></clipPath><clipPath id="0ed6545610"><path d="M 187 69.25 L 195 69.25 L 195 91 L 187 91 Z M 187 69.25 " clip-rule="nonzero"/></clipPath><clipPath id="8d937d2251"><path d="M 282 178 L 303.710938 178 L 303.710938 186 L 282 186 Z M 282 178 " clip-rule="nonzero"/></clipPath><clipPath id="899994dff2"><path d="M 78.710938 178 L 100 178 L 100 186 L 78.710938 186 Z M 78.710938 178 " clip-rule="nonzero"/></clipPath></defs><path fill="#5a6873" d="M 158.117188 275.742188 L 224.304688 275.742188 C 226.476562 275.742188 228.230469 277.492188 228.230469 279.621094 C 228.230469 281.75 226.476562 283.503906 224.304688 283.503906 L 158.117188 283.503906 C 155.945312 283.503906 154.195312 281.75 154.195312 279.621094 C 154.195312 277.492188 155.945312 275.742188 158.117188 275.742188 Z M 158.117188 275.742188 " fill-opacity="1" fill-rule="evenodd"/><path fill="#5a6873" d="M 165.042969 287.925781 L 217.378906 287.925781 C 219.546875 287.925781 221.300781 289.675781 221.300781 291.804688 C 221.300781 293.933594 219.546875 295.683594 217.378906 295.683594 L 165.042969 295.683594 C 162.875 295.683594 161.121094 293.933594 161.121094 291.804688 C 161.121094 289.675781 162.875 287.925781 165.042969 287.925781 Z M 165.042969 287.925781 " fill-opacity="1" fill-rule="evenodd"/><g clip-path="url(#6f7bc26649)"><path fill="#5a6873" d="M 213.582031 300.109375 C 208.449219 308.371094 200.308594 313.710938 191.210938 313.710938 C 182.070312 313.710938 173.976562 308.371094 168.84375 300.109375 Z M 213.582031 300.109375 " fill-opacity="1" fill-rule="evenodd"/></g><g clip-path="url(#0ed6545610)"><path fill="#f5d51e" d="M 187.664062 72.796875 C 187.664062 70.835938 189.25 69.25 191.210938 69.25 C 193.171875 69.25 194.757812 70.835938 194.757812 72.796875 L 194.757812 86.777344 C 194.757812 88.738281 193.171875 90.320312 191.210938 90.320312 C 189.25 90.320312 187.664062 88.738281 187.664062 86.777344 Z M 187.664062 72.796875 " fill-opacity="1" fill-rule="nonzero"/></g><path fill="#f5d51e" d="M 242.585938 85.605469 C 243.585938 83.898438 245.757812 83.355469 247.425781 84.3125 C 249.136719 85.316406 249.722656 87.484375 248.761719 89.195312 L 241.75 101.253906 C 240.789062 102.964844 238.621094 103.546875 236.910156 102.546875 C 235.199219 101.585938 234.613281 99.417969 235.617188 97.707031 Z M 242.585938 85.605469 " fill-opacity="1" fill-rule="nonzero"/><path fill="#f5d51e" d="M 283.734375 124.160156 C 285.445312 123.199219 287.617188 123.785156 288.617188 125.453125 C 289.578125 127.164062 288.992188 129.332031 287.324219 130.335938 L 275.222656 137.300781 C 273.511719 138.304688 271.339844 137.71875 270.378906 136.007812 C 269.378906 134.296875 269.960938 132.128906 271.671875 131.128906 Z M 283.734375 124.160156 " fill-opacity="1" fill-rule="nonzero"/><g clip-path="url(#8d937d2251)"><path fill="#f5d51e" d="M 300.136719 178.148438 C 302.097656 178.148438 303.683594 179.734375 303.683594 181.695312 C 303.683594 183.65625 302.097656 185.242188 300.136719 185.242188 L 286.15625 185.242188 C 284.195312 185.242188 282.609375 183.65625 282.609375 181.695312 C 282.609375 179.734375 284.195312 178.148438 286.15625 178.148438 Z M 300.136719 178.148438 " fill-opacity="1" fill-rule="nonzero"/></g><path fill="#f5d51e" d="M 287.324219 233.058594 C 288.992188 234.058594 289.578125 236.230469 288.617188 237.898438 C 287.617188 239.609375 285.445312 240.191406 283.734375 239.234375 L 271.671875 232.222656 C 269.960938 231.265625 269.378906 229.09375 270.378906 227.382812 C 271.339844 225.671875 273.511719 225.089844 275.222656 226.089844 Z M 287.324219 233.058594 " fill-opacity="1" fill-rule="nonzero"/><path fill="#f5d51e" d="M 98.6875 239.234375 C 96.976562 240.191406 94.808594 239.609375 93.804688 237.898438 C 92.84375 236.230469 93.386719 234.058594 95.097656 233.058594 L 107.203125 226.089844 C 108.914062 225.089844 111.082031 225.671875 112.042969 227.382812 C 113.042969 229.09375 112.460938 231.265625 110.75 232.265625 Z M 98.6875 239.234375 " fill-opacity="1" fill-rule="nonzero"/><g clip-path="url(#899994dff2)"><path fill="#f5d51e" d="M 82.285156 185.242188 C 80.324219 185.242188 78.738281 183.65625 78.738281 181.695312 C 78.738281 179.734375 80.324219 178.148438 82.285156 178.148438 L 96.269531 178.148438 C 98.230469 178.148438 99.816406 179.734375 99.816406 181.695312 C 99.816406 183.65625 98.230469 185.242188 96.269531 185.242188 Z M 82.285156 185.242188 " fill-opacity="1" fill-rule="nonzero"/></g><path fill="#f5d51e" d="M 95.097656 130.335938 C 93.386719 129.332031 92.84375 127.164062 93.804688 125.453125 C 94.808594 123.785156 96.976562 123.199219 98.6875 124.160156 L 110.75 131.128906 C 112.460938 132.128906 113.042969 134.296875 112.042969 136.007812 C 111.082031 137.71875 108.914062 138.304688 107.203125 137.300781 Z M 95.097656 130.335938 " fill-opacity="1" fill-rule="nonzero"/><path fill="#f5d51e" d="M 133.660156 89.195312 C 132.699219 87.484375 133.285156 85.316406 134.953125 84.3125 C 136.664062 83.355469 138.835938 83.898438 139.835938 85.605469 L 146.808594 97.707031 C 147.808594 99.417969 147.222656 101.585938 145.511719 102.546875 C 143.800781 103.546875 141.632812 102.964844 140.628906 101.253906 Z M 133.660156 89.195312 " fill-opacity="1" fill-rule="nonzero"/><path fill="#fb8926" d="M 194.800781 178.109375 L 213.871094 178.109375 C 213.414062 176.605469 213.203125 175.0625 213.203125 173.476562 C 213.203125 168.972656 215 164.882812 217.960938 161.917969 C 220.925781 159 225.015625 157.164062 229.523438 157.164062 C 234.03125 157.164062 238.078125 159 241.042969 161.917969 C 244.003906 164.882812 245.839844 168.972656 245.839844 173.476562 C 245.839844 175.019531 245.589844 176.605469 245.132812 178.109375 L 264.496094 178.109375 C 263.871094 158.832031 255.773438 141.433594 243.042969 128.664062 C 230.566406 116.191406 213.621094 108.222656 194.800781 107.304688 L 194.800781 132.964844 C 195.050781 134.007812 194.800781 135.214844 194.007812 136.09375 C 193.382812 136.84375 192.546875 137.261719 191.671875 137.34375 L 191.628906 137.34375 C 191.503906 137.34375 191.378906 137.34375 191.210938 137.34375 C 190.085938 137.34375 189.082031 136.84375 188.414062 136.007812 C 187.746094 135.507812 186.996094 135.089844 186.203125 134.800781 C 185.203125 134.421875 184.117188 134.257812 182.988281 134.257812 C 180.445312 134.257812 178.148438 135.257812 176.519531 136.925781 C 174.851562 138.597656 173.808594 140.890625 173.808594 143.394531 C 173.808594 145.941406 174.851562 148.234375 176.519531 149.902344 C 178.148438 151.53125 180.445312 152.574219 182.988281 152.574219 C 184.074219 152.574219 185.160156 152.363281 186.121094 152.03125 C 187.078125 151.65625 187.957031 151.195312 188.75 150.527344 C 189.375 149.945312 190.25 149.570312 191.210938 149.570312 C 193.171875 149.570312 194.800781 151.15625 194.800781 153.117188 Z M 194.800781 178.109375 " fill-opacity="1" fill-rule="nonzero"/><path fill="#02b5bc" d="M 193.671875 212.863281 C 193.046875 213.449219 192.171875 213.824219 191.210938 213.824219 C 189.25 213.824219 187.621094 212.238281 187.621094 210.277344 L 187.621094 185.285156 L 168.550781 185.285156 C 169.007812 186.785156 169.21875 188.332031 169.21875 189.917969 C 169.21875 194.421875 167.421875 198.511719 164.460938 201.472656 C 161.496094 204.394531 157.40625 206.230469 152.898438 206.230469 C 148.394531 206.230469 144.34375 204.394531 141.382812 201.472656 C 138.417969 198.511719 136.582031 194.421875 136.582031 189.917969 C 136.582031 188.371094 136.832031 186.785156 137.292969 185.285156 L 118.050781 185.285156 C 118.304688 189.25 118.886719 193.171875 119.722656 196.925781 C 120.972656 202.351562 122.808594 207.566406 125.1875 212.445312 C 129.78125 221.875 133.367188 228.136719 136.75 233.933594 C 142.300781 243.53125 147.140625 251.917969 154.402344 271.070312 L 187.621094 271.070312 L 187.621094 230.429688 C 187.371094 229.386719 187.621094 228.175781 188.414062 227.257812 C 189.042969 226.550781 189.875 226.132812 190.753906 226.046875 L 190.792969 226.046875 C 190.917969 226.046875 191.042969 226.046875 191.210938 226.046875 C 192.339844 226.046875 193.339844 226.550781 194.007812 227.34375 C 194.675781 227.882812 195.425781 228.300781 196.21875 228.59375 C 197.222656 228.96875 198.304688 229.136719 199.433594 229.136719 C 201.980469 229.136719 204.273438 228.136719 205.902344 226.464844 C 207.570312 224.796875 208.613281 222.503906 208.613281 220 C 208.613281 217.453125 207.570312 215.160156 205.902344 213.488281 C 204.273438 211.863281 201.980469 210.820312 199.433594 210.820312 C 198.347656 210.820312 197.261719 211.027344 196.304688 211.363281 C 195.34375 211.738281 194.464844 212.195312 193.671875 212.863281 Z M 193.671875 212.863281 " fill-opacity="1" fill-rule="nonzero"/><path fill="#f5d51e" d="M 222.386719 179.234375 C 222.96875 179.859375 223.347656 180.738281 223.347656 181.695312 C 223.347656 183.65625 221.761719 185.285156 219.800781 185.285156 L 194.800781 185.285156 L 194.800781 204.351562 C 196.304688 203.894531 197.847656 203.683594 199.433594 203.683594 C 203.941406 203.683594 208.03125 205.480469 210.992188 208.441406 C 213.914062 211.402344 215.75 215.492188 215.75 220 C 215.75 224.503906 213.914062 228.550781 210.992188 231.515625 C 208.03125 234.476562 203.941406 236.3125 199.433594 236.3125 C 197.847656 236.3125 196.304688 236.0625 194.800781 235.601562 L 194.800781 271.070312 L 228.019531 271.070312 C 235.28125 251.917969 240.125 243.53125 245.671875 233.933594 C 249.011719 228.136719 252.644531 221.875 257.234375 212.445312 C 259.613281 207.566406 261.449219 202.351562 262.699219 196.925781 C 263.535156 193.171875 264.121094 189.25 264.371094 185.285156 L 239.957031 185.285156 C 238.914062 185.535156 237.703125 185.285156 236.785156 184.492188 C 236.074219 183.867188 235.65625 183.03125 235.574219 182.15625 L 235.574219 182.113281 C 235.574219 181.988281 235.574219 181.863281 235.574219 181.695312 C 235.574219 180.570312 236.074219 179.570312 236.867188 178.902344 C 237.410156 178.234375 237.828125 177.484375 238.121094 176.691406 C 238.496094 175.6875 238.664062 174.605469 238.664062 173.476562 C 238.664062 170.933594 237.660156 168.636719 235.992188 167.011719 C 234.320312 165.339844 232.027344 164.296875 229.523438 164.296875 C 226.976562 164.296875 224.683594 165.339844 223.011719 167.011719 C 221.386719 168.636719 220.339844 170.933594 220.339844 173.476562 C 220.339844 174.5625 220.550781 175.648438 220.882812 176.605469 C 221.257812 177.566406 221.71875 178.441406 222.386719 179.234375 Z M 222.386719 179.234375 " fill-opacity="1" fill-rule="nonzero"/><path fill="#60a75b" d="M 187.621094 159.039062 C 186.121094 159.5 184.574219 159.707031 182.988281 159.707031 C 178.484375 159.707031 174.394531 157.914062 171.429688 154.953125 C 168.507812 151.988281 166.671875 147.902344 166.671875 143.394531 C 166.671875 138.886719 168.507812 134.839844 171.429688 131.878906 C 174.394531 128.917969 178.484375 127.082031 182.988281 127.082031 C 184.535156 127.082031 186.121094 127.332031 187.621094 127.789062 L 187.621094 107.304688 C 168.800781 108.222656 151.855469 116.191406 139.378906 128.664062 C 126.648438 141.433594 118.554688 158.832031 117.925781 178.109375 L 142.464844 178.109375 C 143.511719 177.859375 144.71875 178.109375 145.597656 178.902344 C 146.347656 179.527344 146.765625 180.363281 146.847656 181.238281 L 146.847656 181.28125 C 146.847656 181.40625 146.847656 181.53125 146.847656 181.695312 C 146.847656 182.824219 146.347656 183.824219 145.511719 184.492188 C 145.011719 185.160156 144.59375 185.910156 144.304688 186.703125 C 143.925781 187.703125 143.761719 188.789062 143.761719 189.917969 C 143.761719 192.460938 144.761719 194.757812 146.429688 196.382812 C 148.101562 198.050781 150.394531 199.09375 152.898438 199.09375 C 155.445312 199.09375 157.742188 198.050781 159.410156 196.382812 C 161.039062 194.757812 162.082031 192.460938 162.082031 189.917969 C 162.082031 188.832031 161.871094 187.746094 161.539062 186.785156 C 161.164062 185.828125 160.703125 184.949219 160.035156 184.160156 C 159.453125 183.53125 159.078125 182.65625 159.078125 181.695312 C 159.078125 179.734375 160.664062 178.109375 162.625 178.109375 L 187.621094 178.109375 Z M 187.621094 159.039062 " fill-opacity="1" fill-rule="nonzero"/></svg>