<svg xmlns="http://www.w3.org/2000/svg" xmlns:xlink="http://www.w3.org/1999/xlink" width="500" zoomAndPan="magnify" viewBox="0 0 375 374.999991" height="500" preserveAspectRatio="xMidYMid meet" version="1.0"><path fill="#000000" d="M 244.730469 144.046875 L 244.742188 144.046875 L 244.742188 144.007812 Z M 244.730469 144.046875 " fill-opacity="1" fill-rule="nonzero"/><path fill="#f2bb30" d="M 267.582031 240.257812 C 283.007812 240.257812 288.714844 229.5 294.074219 213.371094 C 299.628906 196.757812 299.390625 180.777344 294.074219 159.5 C 290.25 144.175781 283.019531 132.609375 267.582031 132.609375 L 247.703125 132.609375 L 247.703125 156.140625 C 247.703125 174.390625 232.222656 189.769531 214.574219 189.769531 L 161.59375 189.769531 C 147.101562 189.769531 135.101562 202.167969 135.101562 216.703125 L 135.101562 267.203125 C 135.101562 281.582031 147.601562 290.019531 161.59375 294.140625 C 178.351562 299.046875 194.480469 299.933594 214.566406 294.140625 C 227.90625 290.269531 241.054688 282.472656 241.054688 267.203125 L 241.054688 247.007812 L 188.121094 247.007812 L 188.121094 240.269531 L 267.582031 240.269531 Z M 217.890625 260.453125 C 223.390625 260.453125 227.859375 264.972656 227.859375 270.527344 C 227.859375 276.140625 223.398438 280.648438 217.890625 280.648438 C 212.425781 280.648438 207.917969 276.082031 207.917969 270.527344 C 207.972656 264.917969 212.445312 260.453125 217.890625 260.453125 Z M 217.890625 260.453125 " fill-opacity="1" fill-rule="nonzero"/><path fill="#35668f" d="M 107.816406 240.269531 L 126.019531 240.269531 L 126.019531 216.054688 C 126.019531 198.546875 141.148438 183.109375 159.148438 183.109375 L 212.121094 183.109375 C 226.851562 183.109375 238.609375 170.964844 238.609375 156.175781 L 238.609375 105.640625 C 238.609375 91.257812 226.507812 80.480469 212.121094 78.066406 C 194.359375 75.128906 175.066406 75.296875 159.148438 78.121094 L 159.15625 78.109375 C 136.730469 82.074219 132.675781 90.351562 132.675781 105.675781 L 132.675781 125.871094 L 185.703125 125.871094 L 185.703125 132.621094 L 112.777344 132.621094 C 97.351562 132.621094 83.851562 141.898438 79.648438 159.507812 C 74.785156 179.703125 74.59375 192.296875 79.648438 213.378906 C 83.40625 229.054688 92.398438 240.269531 107.816406 240.269531 Z M 155.832031 112.378906 C 150.332031 112.378906 145.859375 107.859375 145.859375 102.304688 C 145.925781 96.695312 150.332031 92.183594 155.832031 92.183594 C 161.296875 92.183594 165.804688 96.742188 165.804688 102.304688 C 165.804688 107.871094 161.34375 112.378906 155.832031 112.378906 Z M 155.832031 112.378906 " fill-opacity="1" fill-rule="nonzero"/></svg>