<svg xmlns="http://www.w3.org/2000/svg" xmlns:xlink="http://www.w3.org/1999/xlink" width="500" zoomAndPan="magnify" viewBox="0 0 375 374.999991" height="500" preserveAspectRatio="xMidYMid meet" version="1.0"><defs><clipPath id="882542a57d"><path d="M 24.277344 74 L 297 74 L 297 346.902344 L 24.277344 346.902344 Z M 24.277344 74 " clip-rule="nonzero"/></clipPath><clipPath id="14a8173a88"><path d="M 145 28.152344 L 349 28.152344 L 349 232 L 145 232 Z M 145 28.152344 " clip-rule="nonzero"/></clipPath></defs><path fill="#f14a62" d="M 281.652344 210.769531 C 281.652344 143.6875 227.3125 89.339844 160.339844 89.339844 C 93.328125 89.339844 38.996094 143.6875 38.996094 210.769531 C 38.996094 277.820312 93.328125 332.171875 160.339844 332.171875 C 227.3125 332.171875 281.652344 277.820312 281.652344 210.769531 " fill-opacity="1" fill-rule="nonzero"/><g clip-path="url(#882542a57d)"><path fill="#3a4242" d="M 160.339844 74.660156 C 85.335938 74.660156 24.320312 135.71875 24.320312 210.769531 C 24.320312 285.804688 85.335938 346.859375 160.339844 346.859375 C 235.320312 346.859375 296.328125 285.804688 296.328125 210.769531 C 296.328125 135.71875 235.320312 74.660156 160.339844 74.660156 Z M 160.339844 89.339844 C 227.3125 89.339844 281.652344 143.6875 281.652344 210.769531 C 281.652344 277.820312 227.3125 332.171875 160.339844 332.171875 C 93.328125 332.171875 38.996094 277.820312 38.996094 210.769531 C 38.996094 143.6875 93.328125 89.339844 160.339844 89.339844 " fill-opacity="1" fill-rule="nonzero"/></g><path fill="#efeff0" d="M 160.339844 113.691406 C 106.84375 113.691406 63.316406 157.242188 63.316406 210.769531 C 63.316406 264.285156 106.84375 307.824219 160.339844 307.824219 C 213.832031 307.824219 257.347656 264.285156 257.347656 210.769531 C 257.347656 157.242188 213.832031 113.691406 160.339844 113.691406 Z M 160.339844 322.503906 C 98.753906 322.503906 48.644531 272.382812 48.644531 210.769531 C 48.644531 149.140625 98.753906 99.007812 160.339844 99.007812 C 221.917969 99.007812 272.015625 149.140625 272.015625 210.769531 C 272.015625 272.382812 221.917969 322.503906 160.339844 322.503906 " fill-opacity="1" fill-rule="nonzero"/><path fill="#efeff0" d="M 160.339844 149.4375 C 126.539062 149.4375 99.03125 176.957031 99.03125 210.769531 C 99.03125 244.585938 126.539062 272.101562 160.339844 272.101562 C 194.132812 272.101562 221.625 244.585938 221.625 210.769531 C 221.625 176.957031 194.132812 149.4375 160.339844 149.4375 Z M 160.339844 286.785156 C 118.441406 286.785156 84.363281 252.6875 84.363281 210.769531 C 84.363281 168.855469 118.441406 134.757812 160.339844 134.757812 C 202.222656 134.757812 236.296875 168.855469 236.296875 210.769531 C 236.296875 252.6875 202.222656 286.785156 160.339844 286.785156 " fill-opacity="1" fill-rule="nonzero"/><path fill="#efeff0" d="M 186.589844 210.769531 C 186.589844 196.226562 174.832031 184.472656 160.339844 184.472656 C 145.816406 184.472656 134.066406 196.226562 134.066406 210.769531 C 134.066406 225.296875 145.816406 237.054688 160.339844 237.054688 C 174.832031 237.054688 186.589844 225.296875 186.589844 210.769531 " fill-opacity="1" fill-rule="nonzero"/><path fill="#ffef24" d="M 320.453125 64.261719 C 322.039062 62.125 321.960938 59.152344 320 57.191406 C 317.96875 55.167969 314.78125 55.128906 312.632812 56.976562 C 311.640625 49.519531 308.351562 39.554688 297.550781 44.128906 C 281.058594 51.136719 276.242188 92.4375 276.242188 92.4375 L 245.667969 123.054688 L 245.734375 123.097656 L 228.171875 133.0625 C 228.027344 133.121094 227.929688 133.234375 227.804688 133.277344 L 226.558594 133.996094 L 226.640625 134.082031 C 225.851562 134.539062 225.019531 134.902344 224.339844 135.585938 L 184.828125 175.136719 C 180.722656 179.242188 180.613281 185.632812 184.117188 190.078125 L 160.339844 217.023438 L 187.265625 193.230469 C 191.699219 196.75 198.09375 196.632812 202.214844 192.53125 L 241.734375 152.953125 C 242.398438 152.277344 242.78125 151.492188 243.226562 150.703125 L 243.308594 150.761719 L 243.765625 149.914062 C 243.933594 149.566406 244.148438 149.28125 244.269531 148.933594 L 253.742188 131.128906 L 253.769531 131.152344 L 283.632812 101.273438 C 283.726562 101.199219 283.796875 101.175781 283.875 101.085938 L 284.394531 100.597656 L 284.40625 100.609375 C 284.40625 100.609375 325.695312 95.796875 332.699219 79.289062 C 337.152344 68.773438 327.820312 65.378906 320.453125 64.261719 " fill-opacity="1" fill-rule="nonzero"/><path fill="#dfd220" d="M 285.554688 94.371094 C 284.65625 95.230469 283.195312 95.230469 282.3125 94.371094 C 281.429688 93.484375 281.429688 92.007812 282.3125 91.117188 L 312.347656 61.203125 C 313.230469 60.332031 314.683594 60.332031 315.574219 61.203125 C 316.449219 62.09375 316.449219 63.542969 315.574219 64.421875 L 285.554688 94.371094 " fill-opacity="1" fill-rule="nonzero"/><g clip-path="url(#14a8173a88)"><path fill="#3a4242" d="M 302.566406 28.289062 C 299.082031 28.289062 295.46875 29.066406 291.824219 30.605469 C 271.898438 39.078125 264.722656 70.292969 262.375 85.554688 L 236.519531 111.445312 L 220.929688 120.289062 L 220.933594 120.292969 C 220.785156 120.375 220.640625 120.457031 220.5 120.542969 L 219.253906 121.261719 C 218.738281 121.5625 218.25 121.886719 217.773438 122.234375 C 216.636719 122.925781 215.277344 123.875 213.910156 125.257812 L 174.449219 164.753906 C 168.472656 170.734375 166.019531 179.050781 167.269531 186.988281 L 149.339844 207.300781 C 144.210938 213.113281 144.484375 221.921875 149.957031 227.40625 C 152.820312 230.265625 156.578125 231.707031 160.347656 231.707031 C 163.800781 231.707031 167.269531 230.488281 170.046875 228.03125 L 190.339844 210.101562 C 191.679688 210.320312 193.058594 210.425781 194.425781 210.425781 C 201.269531 210.425781 207.714844 207.769531 212.5625 202.941406 L 252.105469 163.332031 C 253.5 161.929688 254.457031 160.550781 255.117188 159.472656 C 255.519531 158.929688 255.882812 158.359375 256.207031 157.757812 L 256.664062 156.910156 C 256.703125 156.847656 256.734375 156.789062 256.765625 156.726562 C 256.953125 156.40625 257.210938 155.9375 257.480469 155.34375 L 265.601562 140.082031 L 291.152344 114.511719 C 306.355469 112.183594 337.722656 105.023438 346.207031 85.035156 C 350.5625 74.730469 347.773438 67.042969 345.71875 63.371094 C 343.316406 59.054688 339.636719 55.695312 334.742188 53.304688 C 333.753906 50.945312 332.292969 48.730469 330.371094 46.808594 C 328.414062 44.851562 326.132812 43.359375 323.65625 42.363281 C 317.578125 29.503906 306.480469 28.289062 302.566406 28.289062 Z M 302.566406 42.976562 C 309.433594 42.976562 311.816406 50.824219 312.632812 56.976562 C 313.671875 56.082031 314.953125 55.628906 316.230469 55.628906 C 317.59375 55.628906 318.953125 56.144531 320 57.191406 C 321.960938 59.152344 322.039062 62.125 320.453125 64.261719 C 327.820312 65.378906 337.152344 68.773438 332.699219 79.289062 C 325.695312 95.796875 284.40625 100.609375 284.40625 100.609375 L 284.394531 100.597656 L 283.875 101.085938 C 283.796875 101.175781 283.726562 101.199219 283.632812 101.273438 L 253.769531 131.152344 L 253.742188 131.128906 L 244.269531 148.933594 C 244.148438 149.28125 243.933594 149.566406 243.765625 149.914062 L 243.308594 150.761719 L 243.226562 150.703125 C 242.78125 151.492188 242.398438 152.277344 241.734375 152.953125 L 202.214844 192.53125 C 200.046875 194.691406 197.242188 195.746094 194.425781 195.746094 C 191.898438 195.746094 189.359375 194.898438 187.265625 193.230469 L 160.339844 217.023438 L 184.117188 190.078125 C 180.613281 185.632812 180.722656 179.242188 184.828125 175.136719 L 224.339844 135.585938 C 225.019531 134.902344 225.851562 134.539062 226.640625 134.082031 L 226.558594 133.996094 L 227.804688 133.277344 C 227.929688 133.234375 228.027344 133.121094 228.171875 133.0625 L 245.734375 123.097656 L 245.667969 123.054688 L 276.242188 92.4375 C 276.242188 92.4375 281.058594 51.136719 297.550781 44.128906 C 299.453125 43.324219 301.105469 42.964844 302.566406 42.976562 " fill-opacity="1" fill-rule="nonzero"/></g></svg>