<svg xmlns="http://www.w3.org/2000/svg" xmlns:xlink="http://www.w3.org/1999/xlink" width="500" zoomAndPan="magnify" viewBox="0 0 375 374.999991" height="500" preserveAspectRatio="xMidYMid meet" version="1.0"><defs><clipPath id="c6889317fb"><path d="M 176 88.988281 L 253 88.988281 L 253 214 L 176 214 Z M 176 88.988281 " clip-rule="nonzero"/></clipPath><clipPath id="d1ce3c5b58"><path d="M 79 131.105469 L 300.972656 131.105469 L 300.972656 286.234375 L 79 286.234375 Z M 79 131.105469 " clip-rule="nonzero"/></clipPath><clipPath id="70f16b186a"><path d="M 73.777344 183 L 117 183 L 117 256 L 73.777344 256 Z M 73.777344 183 " clip-rule="nonzero"/></clipPath></defs><g clip-path="url(#c6889317fb)"><path fill="#f46c6d" d="M 177.882812 172.558594 C 178.039062 174.660156 179.703125 176.292969 181.738281 176.464844 C 181.957031 176.484375 182.1875 176.484375 182.414062 176.464844 C 184.746094 176.292969 186.488281 174.253906 186.3125 171.921875 L 185.441406 160.246094 L 188.40625 157.121094 L 189.820312 176.046875 C 190.007812 178.515625 191.339844 180.605469 193.257812 181.863281 L 194.214844 192.851562 L 186.636719 206.585938 C 185.394531 208.835938 186.207031 211.664062 188.453125 212.917969 C 189.046875 213.246094 189.675781 213.433594 190.308594 213.484375 C 192.082031 213.632812 193.859375 212.753906 194.777344 211.09375 L 203.042969 196.121094 C 203.492188 195.304688 203.6875 194.375 203.601562 193.453125 L 202.527344 181.113281 C 202.550781 181.09375 202.578125 181.078125 202.601562 181.054688 L 212.121094 184.019531 L 219.066406 197.058594 C 220.273438 199.324219 223.09375 200.183594 225.355469 198.96875 C 227.625 197.757812 228.484375 194.941406 227.269531 192.667969 L 219.425781 177.945312 C 218.851562 176.859375 217.871094 176.046875 216.707031 175.683594 L 204.777344 171.972656 L 203.207031 151.027344 L 217.253906 151.320312 L 222.382812 147.871094 L 222.382812 150.765625 C 222.382812 152.417969 223.722656 153.765625 225.375 153.765625 C 227.023438 153.765625 228.363281 152.417969 228.363281 150.765625 L 228.363281 143.84375 L 230.050781 142.707031 C 230.148438 142.640625 230.238281 142.570312 230.332031 142.503906 C 232.035156 141.140625 232.4375 138.671875 231.203125 136.824219 C 230.523438 135.808594 229.480469 135.195312 228.363281 135.015625 L 228.363281 112.847656 L 252.90625 112.847656 L 246.546875 103.523438 L 252.90625 94.632812 L 228.363281 94.632812 L 228.363281 91.988281 C 228.363281 90.328125 227.023438 88.988281 225.375 88.988281 C 223.722656 88.988281 222.382812 90.328125 222.382812 91.988281 L 222.382812 137.65625 L 214.753906 142.792969 L 202.308594 142.535156 C 201.734375 140.894531 200.628906 139.53125 199.214844 138.621094 C 202.210938 136.890625 204.121094 133.550781 203.847656 129.855469 C 203.460938 124.730469 198.996094 120.878906 193.878906 121.257812 C 188.75 121.644531 184.914062 126.125 185.300781 131.253906 C 185.554688 134.699219 187.65625 137.5625 190.558594 138.957031 C 188.558594 140.46875 187.339844 142.933594 187.542969 145.617188 L 187.546875 145.71875 L 176.726562 157.132812 L 177.882812 172.558594 " fill-opacity="1" fill-rule="nonzero"/></g><g clip-path="url(#d1ce3c5b58)"><path fill="#62bc89" d="M 283.613281 174.949219 L 294.9375 183.386719 L 300.972656 131.296875 L 252.941406 152.105469 L 276.644531 169.804688 L 262.207031 163.515625 L 223.539062 213.914062 L 172.765625 221.597656 L 79.195312 264.429688 L 89.132812 286.234375 L 179.65625 244.796875 L 236.636719 236.175781 L 283.613281 174.949219 " fill-opacity="1" fill-rule="nonzero"/></g><path fill="#f4b62a" d="M 122.316406 202.738281 C 122.488281 204.375 123.828125 205.613281 125.417969 205.699219 C 125.589844 205.707031 125.769531 205.707031 125.945312 205.683594 C 127.765625 205.492188 129.078125 203.863281 128.886719 202.042969 L 127.933594 192.945312 L 130.171875 190.441406 L 131.722656 205.1875 C 131.921875 207.109375 133.015625 208.710938 134.539062 209.648438 L 135.546875 218.210938 L 129.945312 229.105469 C 129.027344 230.894531 129.726562 233.089844 131.507812 234.011719 C 131.984375 234.257812 132.480469 234.386719 132.972656 234.40625 C 134.363281 234.488281 135.726562 233.757812 136.410156 232.441406 L 142.515625 220.550781 C 142.84375 219.90625 142.976562 219.175781 142.890625 218.464844 L 141.765625 208.847656 C 141.78125 208.824219 141.800781 208.8125 141.816406 208.796875 L 149.324219 210.886719 L 155.050781 220.90625 C 156.050781 222.652344 158.265625 223.261719 160.011719 222.261719 C 161.753906 221.261719 162.355469 219.042969 161.355469 217.289062 L 154.890625 205.972656 C 154.414062 205.144531 153.628906 204.527344 152.710938 204.277344 L 143.308594 201.652344 L 141.59375 185.332031 L 152.574219 185.234375 L 162.367188 178.203125 C 162.4375 178.152344 162.507812 178.09375 162.578125 178.039062 C 163.882812 176.9375 164.136719 174.996094 163.128906 173.582031 C 162.066406 172.101562 160 171.757812 158.519531 172.816406 L 150.421875 178.632812 L 140.695312 178.71875 C 140.207031 177.457031 139.316406 176.40625 138.1875 175.734375 C 140.488281 174.3125 141.902344 171.65625 141.601562 168.789062 C 141.183594 164.78125 137.601562 161.882812 133.613281 162.300781 C 129.617188 162.722656 126.730469 166.304688 127.148438 170.304688 C 127.429688 172.996094 129.136719 175.175781 131.433594 176.199219 C 129.90625 177.421875 129.015625 179.382812 129.230469 181.46875 L 129.238281 181.550781 L 121.054688 190.726562 L 122.316406 202.738281 " fill-opacity="1" fill-rule="nonzero"/><g clip-path="url(#70f16b186a)"><path fill="#33b1e8" d="M 81.65625 223.441406 L 80.707031 214.347656 L 82.945312 211.839844 L 84.492188 226.582031 C 84.695312 228.507812 85.785156 230.109375 87.308594 231.042969 L 88.3125 239.609375 L 82.714844 250.503906 C 81.796875 252.292969 82.5 254.488281 84.277344 255.410156 C 84.753906 255.652344 85.25 255.785156 85.742188 255.8125 C 87.132812 255.882812 88.5 255.152344 89.179688 253.84375 L 95.289062 241.949219 C 95.617188 241.3125 95.75 240.582031 95.664062 239.859375 L 94.53125 230.246094 C 94.550781 230.230469 94.570312 230.214844 94.59375 230.191406 L 102.09375 232.289062 L 107.820312 242.3125 C 108.820312 244.050781 111.042969 244.660156 112.78125 243.65625 C 114.523438 242.65625 115.128906 240.4375 114.128906 238.691406 L 107.65625 227.367188 C 107.1875 226.539062 106.398438 225.929688 105.480469 225.671875 L 96.082031 223.046875 L 94.363281 206.730469 L 105.34375 206.628906 L 115.140625 199.597656 C 115.210938 199.546875 115.28125 199.492188 115.347656 199.441406 C 116.652344 198.332031 116.910156 196.394531 115.902344 194.984375 C 114.839844 193.496094 112.773438 193.152344 111.289062 194.21875 L 103.191406 200.027344 L 93.464844 200.113281 C 92.980469 198.855469 92.085938 197.808594 90.957031 197.136719 C 93.257812 195.714844 94.671875 193.054688 94.371094 190.183594 C 93.949219 186.183594 90.375 183.28125 86.382812 183.695312 C 82.390625 184.125 79.496094 187.710938 79.917969 191.707031 C 80.199219 194.390625 81.90625 196.570312 84.207031 197.59375 C 82.675781 198.820312 81.785156 200.777344 82.007812 202.867188 L 82.011719 202.945312 L 73.824219 212.125 L 75.085938 224.136719 C 75.257812 225.78125 76.597656 227.011719 78.1875 227.097656 C 78.359375 227.105469 78.539062 227.105469 78.71875 227.082031 C 80.535156 226.886719 81.847656 225.257812 81.65625 223.441406 " fill-opacity="1" fill-rule="nonzero"/></g></svg>